<?xml version="1.0" encoding="UTF-8" standalone="no"?>
<svg
        xmlns:dc="http://purl.org/dc/elements/1.1/"
        xmlns:cc="http://creativecommons.org/ns#"
        xmlns:rdf="http://www.w3.org/1999/02/22-rdf-syntax-ns#"
        xmlns:xlink="http://www.w3.org/1999/xlink"
        xmlns:sodipodi="http://sodipodi.sourceforge.net/DTD/sodipodi-0.dtd"
        xmlns:inkscape="http://www.inkscape.org/namespaces/inkscape"
        xmlns="http://www.w3.org/2000/svg"
        version="1.1"
        preserveAspectRatio="xMidYMid meet"
        viewBox="0 0 640 640"
        width="4000"
        height="4000"
        id="svg3989"
        sodipodi:docname="logo.svg"
        inkscape:version="0.92.4 (5da689c313, 2019-01-14)">
  <metadata
     id="metadata3993">
    <rdf:RDF>
      <cc:Work
         rdf:about="">
        <dc:format>image/svg+xml</dc:format>
        <dc:type
           rdf:resource="http://purl.org/dc/dcmitype/StillImage" />
      </cc:Work>
    </rdf:RDF>
  </metadata>
  <sodipodi:namedview
     pagecolor="#ffffff"
     bordercolor="#666666"
     borderopacity="1"
     objecttolerance="10"
     gridtolerance="10"
     guidetolerance="10"
     inkscape:pageopacity="0"
     inkscape:pageshadow="2"
     inkscape:window-width="3840"
     inkscape:window-height="2055"
     id="namedview3991"
     showgrid="false"
     inkscape:zoom="0.33695153"
     inkscape:cx="2328.1952"
     inkscape:cy="1512.4653"
     inkscape:window-x="3827"
     inkscape:window-y="47"
     inkscape:window-maximized="1"
     inkscape:current-layer="svg3989" />
  <defs
     id="defs3875">
    <path
       d="M723.17 -84.78L1408.39 -84.78L1408.39 828.85L723.17 828.85L723.17 -84.78Z"
       id="bdQvITgG" />
    <clipPath
       id="clipa6ryQ9tg7">
      <use
         xlink:href="#bdQvITgG"
         opacity="0.3"
         id="use3855" />
    </clipPath>
    <path
       d="M396.12 332.69C406.57 343.88 370.75 299.85 337.91 332.69C316.02 354.58 295.87 354.58 277.46 332.69L277.46 257.31"
       id="bp2xHdO5U" />
    <path
       d="M277.8 255.86C292.22 281.89 311.13 282.67 334.51 258.2C357.9 233.73 379.16 233.73 398.3 258.2L398.3 335.52"
       id="a6rWaoTGC" />
    <path
       d="M330.45 314.03L331.21 296.87L331.94 280.45C328.46 278.96 323.23 280.7 316.27 285.67C309.3 290.65 300.1 289.65 288.66 282.69"
       id="cpYFq3pOz" />
    <path
       d=""
       id="eqTNtFnX" />
    <path
       d="M331.94 296.39C312 308.2 297.58 308.2 288.66 296.39"
       id="a2iGFQJLKJ" />
    <path
       d="M307.31 330.45L307.31 317.01"
       id="bKClLDxAB" />
    <path
       d="M334.93 322.03C319 333.84 302.34 333.84 284.93 322.03"
       id="dhXoTuTSj" />
    <path
       d=""
       id="b1Iju2jD8Y" />
    <path
       d=""
       id="f1a6bUvKwb" />
    <path
       d="M386.62 316.47C374.05 309.23 361.62 308.28 349.34 313.61L349.34 264.04"
       id="a10POjRXx1" />
    <path
       d="M349.34 264.75C363.73 252.75 376.53 251.92 387.75 262.25L387.75 316.47"
       id="e3UnUk6rcj" />
    <path
       d="M349.34 269.63C348.56 265.13 349.24 263.13 351.38 263.63"
       id="b2Nkm3x1VT" />
    <path
       d="M387.67 313.89C389.15 317.99 387.82 318.39 383.67 315.08"
       id="a2iFnsA2aW" />
    <path
       d=""
       id="bdcRHadiW" />
    <path
       d=""
       id="a6eoJQSBz5" />
    <path
       d="M277.46 254.08L277.46 259.08"
       id="b1uEbVqAtK" />
    <path
       d="M391.81 329.25C398.43 336.75 400.6 336.89 398.3 329.68"
       id="c30Kmc1riD" />
    <clipPath
       id="clipa6ryQ9tg7-9">
      <use
         xlink:href="#bdQvITgG"
         opacity="0.3"
         id="use3855-1" />
    </clipPath>
  </defs>
  <g
     id="g3987"
     transform="matrix(5.104274,0,0,5.6592834,-1405.4913,-1346.4563)">
    <g
       id="g3985">
      <g
         id="g3881">
        <g
           clip-path="url(#clipa6ryQ9tg7-9)"
           id="g3879"
           style="opacity:0.3" />
      </g>
      <g
         id="g3887">
        <g
           id="g3885">
          <use
             xlink:href="#bp2xHdO5U"
             id="use3883"
             style="opacity:1;fill-opacity:0;stroke:#000000;stroke-width:4;stroke-opacity:1"
             x="0"
             y="0"
             width="100%"
             height="100%" />
        </g>
      </g>
      <g
         id="g3893">
        <g
           id="g3891">
          <use
             xlink:href="#a6rWaoTGC"
             id="use3889"
             style="opacity:1;fill-opacity:0;stroke:#000000;stroke-width:4;stroke-opacity:1"
             x="0"
             y="0"
             width="100%"
             height="100%" />
        </g>
      </g>
      <g
         id="g3899">
        <g
           id="g3897">
          <use
             xlink:href="#cpYFq3pOz"
             id="use3895"
             style="opacity:1;fill-opacity:0;stroke:#000000;stroke-width:4;stroke-opacity:1"
             x="0"
             y="0"
             width="100%"
             height="100%" />
        </g>
      </g>
      <g
         id="g3905">
        <g
           id="g3903">
          <use
             xlink:href="#eqTNtFnX"
             id="use3901"
             style="opacity:1;fill-opacity:0;stroke:#000000;stroke-width:1;stroke-opacity:1"
             x="0"
             y="0"
             width="100%"
             height="100%" />
        </g>
      </g>
      <g
         id="g3911">
        <g
           id="g3909">
          <use
             xlink:href="#a2iGFQJLKJ"
             id="use3907"
             style="opacity:1;fill-opacity:0;stroke:#000000;stroke-width:4;stroke-opacity:1"
             x="0"
             y="0"
             width="100%"
             height="100%" />
        </g>
      </g>
      <g
         id="g3917">
        <g
           id="g3915">
          <use
             xlink:href="#bKClLDxAB"
             id="use3913"
             style="opacity:1;fill-opacity:0;stroke:#000000;stroke-width:5;stroke-opacity:1"
             x="0"
             y="0"
             width="100%"
             height="100%" />
        </g>
      </g>
      <g
         id="g3923">
        <g
           id="g3921">
          <use
             xlink:href="#dhXoTuTSj"
             id="use3919"
             style="opacity:1;fill-opacity:0;stroke:#000000;stroke-width:4;stroke-opacity:1"
             x="0"
             y="0"
             width="100%"
             height="100%" />
        </g>
      </g>
      <g
         id="g3929">
        <g
           id="g3927">
          <use
             xlink:href="#b1Iju2jD8Y"
             id="use3925"
             style="opacity:1;fill-opacity:0;stroke:#000000;stroke-width:4;stroke-opacity:1"
             x="0"
             y="0"
             width="100%"
             height="100%" />
        </g>
      </g>
      <g
         id="g3935">
        <g
           id="g3933">
          <use
             xlink:href="#f1a6bUvKwb"
             id="use3931"
             style="opacity:1;fill-opacity:0;stroke:#000000;stroke-width:4;stroke-opacity:1"
             x="0"
             y="0"
             width="100%"
             height="100%" />
        </g>
      </g>
      <g
         id="g3941">
        <g
           id="g3939">
          <use
             xlink:href="#a10POjRXx1"
             id="use3937"
             style="opacity:1;fill-opacity:0;stroke:#000000;stroke-width:4;stroke-opacity:1"
             x="0"
             y="0"
             width="100%"
             height="100%" />
        </g>
      </g>
      <g
         id="g3947">
        <g
           id="g3945">
          <use
             xlink:href="#e3UnUk6rcj"
             id="use3943"
             style="opacity:1;fill-opacity:0;stroke:#000000;stroke-width:4;stroke-opacity:1"
             x="0"
             y="0"
             width="100%"
             height="100%" />
        </g>
      </g>
      <g
         id="g3953">
        <g
           id="g3951">
          <use
             xlink:href="#b2Nkm3x1VT"
             id="use3949"
             style="opacity:1;fill-opacity:0;stroke:#000000;stroke-width:4;stroke-opacity:1"
             x="0"
             y="0"
             width="100%"
             height="100%" />
        </g>
      </g>
      <g
         id="g3959">
        <g
           id="g3957">
          <use
             xlink:href="#a2iFnsA2aW"
             id="use3955"
             style="opacity:1;fill-opacity:0;stroke:#000000;stroke-width:3;stroke-opacity:1"
             x="0"
             y="0"
             width="100%"
             height="100%" />
        </g>
      </g>
      <g
         id="g3965">
        <g
           id="g3963">
          <use
             xlink:href="#bdcRHadiW"
             id="use3961"
             style="opacity:1;fill-opacity:0;stroke:#000000;stroke-width:3;stroke-opacity:1"
             x="0"
             y="0"
             width="100%"
             height="100%" />
        </g>
      </g>
      <g
         id="g3971">
        <g
           id="g3969">
          <use
             xlink:href="#a6eoJQSBz5"
             id="use3967"
             style="opacity:1;fill-opacity:0;stroke:#000000;stroke-width:3;stroke-opacity:1"
             x="0"
             y="0"
             width="100%"
             height="100%" />
        </g>
      </g>
      <g
         id="g3977">
        <g
           id="g3975">
          <use
             xlink:href="#b1uEbVqAtK"
             id="use3973"
             style="opacity:1;fill-opacity:0;stroke:#000000;stroke-width:4;stroke-opacity:1"
             x="0"
             y="0"
             width="100%"
             height="100%" />
        </g>
      </g>
      <g
         id="g3983">
        <g
           id="g3981">
          <use
             xlink:href="#c30Kmc1riD"
             id="use3979"
             style="opacity:1;fill-opacity:0;stroke:#000000;stroke-width:3;stroke-opacity:1"
             x="0"
             y="0"
             width="100%"
             height="100%" />
        </g>
      </g>
    </g>
  </g>
  <path
     style="stroke-width:2.96778584;fill:#888888;fill-opacity:1"
     d="m 900.69018,3997.494 c -176.16157,-20.3157 -340.24805,-89.4698 -503.03971,-212.0061 -59.482,-44.7733 -99.4305,-80.2935 -172.22653,-153.136 C 150.26385,3557.144 101.81118,3502.3789 38.968757,3421.6055 L 4.4188381,3377.1974 V 1975.5519 573.90635 H 66.742342 129.06585 v 14.59163 c 0,8.02536 1.11245,15.03676 2.47211,15.58087 1.35966,0.54409 11.60783,18.3508 22.77371,39.57047 77.39864,147.08857 157.33744,268.41605 237.57854,360.58598 25.98243,29.845 87.73419,91.8133 112.60055,112.9954 152.02466,129.5 318.80627,180.4011 495.62024,151.2615 248.3348,-40.9265 521.3632,-233.0576 826.7826,-581.80998 C 1996.6275,492.86654 2121.6034,372.47521 2265.0951,264.55595 2536.0546,60.768815 2806.1406,-27.000247 3061.2383,5.8355865 3376.2673,46.385707 3667.489,256.44136 3952.5128,648.7045 l 31.7069,43.63642 V 1993.4815 3294.622 l 6.2413,36.7275 c 11.2423,66.1555 5.3746,109.2368 -18.0715,132.6829 -13.1274,13.1274 -22.9006,17.6628 -46.9453,21.7859 -19.8429,3.4026 -21.1526,3.2453 -36.5483,-4.3947 -11.4455,-5.6794 -34.5002,-25.7951 -81.3986,-71.0223 -65.9944,-63.6427 -109.1576,-100.3501 -169.0246,-143.7436 -227.3158,-164.7649 -459.0287,-259.7151 -683.4772,-280.0717 -57.8486,-5.2464 -165.5984,-2.3457 -221.6975,5.9682 -229.4192,34.0005 -443.9545,152.1356 -639.6345,352.2177 -23.7102,24.2436 -67.2878,70.1217 -96.8391,101.9512 -270.9478,291.8357 -547.8408,473.9949 -809.6494,532.6434 -67.0381,15.0176 -107.9826,19.7093 -182.6123,20.9261 -46.01079,0.7503 -81.35661,-0.2018 -103.87252,-2.7986 z M 1111.403,3853.5145 c 140.669,-24.1767 270.0273,-77.9788 412.5222,-171.5739 138.3785,-90.8914 258.3715,-196.644 417.1204,-367.617 77.5257,-83.4953 131.919,-136.2213 191.628,-185.754 190.5727,-158.0933 386.1152,-247.1606 608.0438,-276.9569 47.8193,-6.4202 155.2815,-8.8364 207.7451,-4.6709 165.7811,13.1626 324.2312,58.7736 491.1685,141.3866 137.2215,67.9074 284.9048,166.7542 395.1595,264.4867 11.67,10.3448 22.0201,18.8086 23.0004,18.8086 0.9799,0 1.7818,-569.5867 1.7818,-1265.7483 V 740.12705 l -39.7894,-52.69054 C 3708.4032,539.94369 3585.8233,413.05402 3472.2767,327.71219 3337.7259,226.58354 3203.2311,167.12574 3058.2705,144.68724 c -42.5135,-6.58069 -153.3968,-7.44645 -195.8738,-1.52936 -219.0468,30.51348 -428.6139,140.14919 -661.8163,346.23133 -57.9959,51.25129 -165.7242,159.81147 -225.2317,226.97086 -26.7566,30.19723 -68.1324,76.93985 -91.9462,103.87251 -52.7833,59.69642 -162.0231,170.97332 -218.8995,222.98162 -317.2463,290.0934 -609.319,410.203 -879.28711,361.591 -62.06501,-11.1758 -115.27739,-29.1711 -179.82041,-60.8115 -84.80133,-41.5715 -156.9418,-94.6896 -237.71932,-175.0363 -80.62404,-80.194 -138.74363,-153.145 -210.13058,-263.7531 l -28.47973,-44.12697 v 1232.79787 1232.798 l 29.82675,37.0246 c 218.24528,270.9132 440.58159,430.6465 670.76027,481.8957 60.97111,13.575 92.66582,16.3956 171.94203,15.301 57.406,-0.7927 80.5193,-2.346 109.8081,-7.38 z"
     id="path3786"
     inkscape:connector-curvature="0"
     transform="scale(0.16)" />
  <path
     style="fill:#888888;fill-opacity:1;stroke-width:2.96778584"
     d="m 1736.4928,2689.8956 c -21.6686,-1.1467 -39.8321,-2.608 -40.3634,-3.2473 -0.5312,-0.6392 3.3862,-108.6703 8.7054,-240.069 5.3192,-131.3988 9.1826,-239.4067 8.5854,-240.0176 -0.5972,-0.6109 -16.1668,7.6131 -34.5991,18.2756 -185.178,107.1194 -373.0558,181.7723 -528.1876,209.8743 -108.0689,19.5767 -223.77994,20.0032 -317.01528,1.1685 -142.70664,-28.8284 -278.35752,-109.4343 -381.05254,-226.4272 -30.61802,-34.8809 -76.67364,-94.9223 -75.35164,-98.2337 1.18521,-2.9689 97.53414,-83.941 98.35498,-82.658 7.49002,11.7069 41.04054,54.9066 58.43951,75.2468 88.71415,103.7106 199.76331,170.6555 324.83587,195.8239 128.53365,25.865 272.0797,10.3647 440.7162,-47.5891 112.145,-38.5399 231.3216,-95.9697 366.9305,-176.8197 l 53.829,-32.0929 1.8959,-34.9564 c 1.0427,-19.226 5.1733,-120.4286 9.179,-224.8947 4.0058,-104.4661 7.7173,-198.46 8.2479,-208.8755 l 0.9647,-18.9371 -32.811,1.5947 c -86.9566,4.2265 -192.7559,56.9431 -344.9691,171.8876 -79.8695,60.3138 -116.4178,81.9105 -176.7639,104.451 -107.8473,40.2833 -234.35751,45.0099 -364.31652,13.6115 -115.24088,-27.8425 -248.15016,-88.1533 -382.84439,-173.7249 -18.77124,-11.9254 -36.65226,-23.5577 -39.7356,-25.8497 -5.3338,-3.9647 -4.05988,-7.0009 26.23137,-62.5191 17.51059,-32.0936 32.30277,-58.352 32.87152,-58.352 0.56875,0 17.49883,10.5344 37.62241,23.4097 126.58197,80.9886 243.0204,134.3431 350.78928,160.739 95.40325,23.3671 190.23633,23.8675 268.87623,1.4188 61.0683,-17.4327 94.8331,-36.1321 179.551,-99.4375 114.4276,-85.506 192.6218,-132.5735 270.0685,-162.5627 63.642,-24.6436 99.1736,-31.9471 154.3249,-31.7214 50.419,0.2063 69.7385,4.471 116.7776,25.7781 l 33.89,15.351 -1.7537,29.8028 c -0.9645,16.3915 -11.9061,289.5582 -24.3145,607.0371 -12.4084,317.4789 -23.2103,581.5748 -24.0041,586.8797 l -1.4434,9.6453 -21.382,-0.4624 c -11.7601,-0.2544 -39.1108,-1.4007 -60.7794,-2.5475 z"
     id="path4593"
     inkscape:connector-curvature="0"
     transform="scale(0.16)" />
  <path
     style="fill:#888888;fill-opacity:1;stroke-width:2.96778584"
     d="m 1035.4277,3354.583 c -208.49219,-18.1417 -407.90681,-90.0097 -623.83185,-224.8257 -37.65957,-23.5133 -126.0451,-84.7896 -135.38354,-93.8593 -3.22054,-3.1279 2.2427,-13.8717 30.84143,-60.6517 l 34.75526,-56.8504 9.31185,7.1025 c 137.26471,104.6969 305.00757,194.1672 454.03767,242.1736 39.87915,12.8462 118.29013,32.7249 129.082,32.7249 h 6.21799 v -200.3256 -200.3255 h 78.64629 78.6464 v 209.6665 209.6665 l 55.6459,-1.7389 c 85.3078,-2.6658 154.5247,-13.6794 239.6488,-38.1322 138.2092,-39.7022 283.3125,-115.6896 417.9824,-218.8882 22.5905,-17.3113 43.3945,-33.1545 46.2312,-35.2072 4.6138,-3.3387 8.9669,1.8768 41.2825,49.461 19.8686,29.2563 36.1248,54.4613 36.1248,56.0111 0,5.49 -87.5664,71.5215 -147.0691,110.9009 -176.6901,116.9352 -355.2126,185.5042 -544.425,209.1091 -42.2236,5.2675 -165.7835,7.6398 -207.745,3.9886 z"
     id="path4595"
     inkscape:connector-curvature="0"
     transform="scale(0.16)" />
  <path
     style="fill:#000000;fill-opacity:1;stroke-width:2.96778584"
     d="m 3553.594,2854.9402 c -16.7785,-5.3202 -32.5166,-13.786 -73.7602,-39.6766 -74.1014,-46.5171 -183.8864,-98.5845 -270.503,-128.2906 -128.4411,-44.0503 -242.8539,-61.8182 -376.4426,-58.4603 -162.1173,4.0749 -288.4335,37.0843 -468.2356,122.3611 -36.0249,17.0859 -66.0434,31.0653 -66.7079,31.0653 -0.6644,0 -1.2349,-374.9427 -1.2677,-833.2059 -0.038,-531.6577 -1.1176,-840.1875 -2.9829,-852.4965 -6.4162,-42.3407 -7.0133,-103.50245 -1.3473,-138.00207 9.3774,-57.09848 38.1105,-100.03445 75.9263,-113.45712 9.6502,-3.4253 27.9271,-15.9552 52.5055,-35.9955 155.6119,-126.88028 307.131,-209.3936 453.1924,-246.79667 72.7787,-18.637 102.5511,-22.20646 184.0028,-22.06044 79.2684,0.14211 102.0078,2.91836 170.1813,20.77738 133.477,34.96624 263.2415,114.07336 384.0527,234.12659 l 34.8715,34.6527 v 983.53693 c 0,976.4882 -0.043,983.6506 -5.9396,999.4116 -13.959,37.3088 -49.5091,54.5711 -87.5457,42.5101 z M 3522.4322,1785.3679 V 889.70147 l -21.3855,-19.14693 c -114.1621,-102.21192 -215.3856,-157.74312 -333.168,-182.77602 -48.8434,-10.38094 -140.6163,-13.13134 -191.5191,-5.73975 -165.4851,24.03013 -336.1286,112.51232 -517.8786,268.53078 -17.9551,15.4131 -33.6268,29.45284 -34.826,31.19947 -1.1993,1.74663 -2.2009,360.91258 -2.2259,798.14648 -0.043,755.8073 0.2104,794.8856 5.1482,793.2403 2.8565,-0.9518 30.5682,-10.435 61.5816,-21.0738 133.5791,-45.8229 234.9592,-62.5802 376.9088,-62.2999 110.8983,0.219 172.9228,7.8348 278.9718,34.2545 116.1139,28.9271 256.4461,86.7085 359.1021,147.8593 8.1614,4.8617 15.8406,8.9067 17.0648,8.9889 1.2242,0.082 2.2258,-402.9004 2.2258,-895.5169 z"
     id="path4597"
     inkscape:connector-curvature="0"
     transform="scale(0.16)" />
  <path
     style="fill:#000000;fill-opacity:1;stroke-width:2.96778584"
     d="m 1036.772,3354.8853 c -1.5555,-1.552 -14.5019,-3.2253 -28.7696,-3.7185 -14.26777,-0.4932 -25.95343,-1.7259 -25.96815,-2.7392 -0.0148,-1.0134 -7.95826,-2.7399 -17.65233,-3.8367 -55.9533,-6.3303 -165.56978,-34.1006 -237.52398,-60.1743 -138.53177,-50.199 -298.99857,-137.7121 -429.56223,-234.2685 l -21.69311,-16.0428 6.29633,-12.5653 c 7.85411,-15.6741 59.13157,-100.115 60.79568,-100.115 0.67251,0 13.5798,9.1539 28.68286,20.3421 53.70964,39.7874 161.49881,108.262 170.42044,108.262 2.16979,0 3.94508,1.0904 3.94508,2.4231 0,3.3816 28.53855,17.5121 30.8003,15.2504 1.01493,-1.0149 1.84534,-0.367 1.84534,1.4398 0,3.49 72.19786,40.2424 79.05383,40.2424 2.2243,0 4.04418,1.0093 4.04418,2.243 0,1.8566 18.71313,9.4576 23.74228,9.6438 0.81614,0.03 3.24866,1.8198 5.40562,3.9767 3.43954,3.4395 7.74625,4.5447 14.29514,3.6682 1.04169,-0.1395 2.71107,1.0626 3.70973,2.6712 0.99863,1.6085 4.4867,3.392 7.75127,3.9632 3.26456,0.5712 6.72348,2.1071 7.6865,3.4131 0.96299,1.306 4.63562,2.5918 8.16141,2.8574 3.52576,0.2656 6.41048,1.4281 6.41048,2.5833 0,2.1531 17.51255,7.1221 21.51645,6.1052 1.22421,-0.311 2.22584,0.913 2.22584,2.7199 0,1.8069 1.91698,2.5497 4.25993,1.6506 2.34298,-0.899 4.68011,-0.5316 5.19362,0.8165 1.28458,3.3724 67.42715,24.4499 70.59042,22.4949 1.40089,-0.8658 2.995,-0.4554 3.5425,0.912 1.29538,3.2354 73.80361,21.2931 85.49942,21.2931 h 8.98126 v -200.3256 -200.3255 h 80.18839 80.1883 l -0.8001,210.897 -0.8,210.897 20.7745,-1.938 c 11.4259,-1.0659 33.4617,-2.3812 48.9684,-2.9229 15.5067,-0.5416 35.5393,-1.6787 44.5168,-2.5268 8.9776,-0.8481 20.7172,-1.5734 26.088,-1.612 5.3709,-0.039 11.3799,-1.0679 13.3533,-2.2875 1.9734,-1.2197 7.2615,-1.8322 11.7512,-1.3613 4.4898,0.471 8.1632,-0.3486 8.1632,-1.8212 0,-1.4726 4.0065,-2.0894 8.9034,-1.3707 4.8968,0.7187 8.9126,0.1534 8.924,-1.256 0.012,-1.4094 6.2473,-2.8497 13.8576,-3.2006 7.6103,-0.3509 14.6124,-1.6864 15.5602,-2.9678 0.9478,-1.2814 7.0653,-2.754 13.5944,-3.2724 6.5292,-0.5184 12.2691,-2.046 12.7554,-3.3947 0.4864,-1.3486 3.4913,-1.7703 6.6776,-0.9371 3.1863,0.8333 5.7932,0.1721 5.7932,-1.4692 0,-1.6413 1.6694,-2.8323 3.7098,-2.6467 7.5231,0.6844 28.9359,-4.5698 28.9359,-7.1002 0,-1.4376 1.6693,-2.0158 3.7097,-1.2849 4.8842,1.7497 89.3686,-27.0046 90.6515,-30.8532 0.5453,-1.6358 2.7362,-2.3047 4.8687,-1.4864 2.1325,0.8183 6.005,-0.6399 8.6056,-3.2405 2.6006,-2.6006 5.4438,-4.6806 6.3182,-4.6223 7.1719,0.4781 10.6198,-0.4055 14.0617,-3.6038 2.1958,-2.0403 5.9638,-4.0891 8.3734,-4.5529 9.0962,-1.7508 20.7038,-7.4017 20.7038,-10.0793 0,-1.5305 1.3355,-1.9574 2.9678,-0.9486 1.6323,1.0088 2.9678,0.1973 2.9678,-1.8034 0,-2.0007 0.8269,-2.8106 1.8377,-1.7999 2.1364,2.1364 43.6776,-18.1074 45.1584,-22.0066 0.5475,-1.4416 2.2169,-1.8662 3.7097,-0.9436 1.4929,0.9227 2.7143,0.4858 2.7143,-0.9707 0,-1.4566 1.7222,-2.6483 3.827,-2.6483 5.0698,0 43.6576,-21.6482 43.6576,-24.4924 0,-1.2197 1.6694,-2.2478 3.7097,-2.2845 4.8506,-0.087 25.9682,-12.7409 25.9682,-15.5599 0,-1.199 1.6955,-2.18 3.7678,-2.18 5.1165,0 28.8778,-15.9344 28.8778,-19.3655 0,-1.5117 1.345,-1.9174 2.9888,-0.9014 1.6438,1.0159 3.7045,-0.018 4.5794,-2.298 0.8748,-2.2799 3.2081,-4.1452 5.185,-4.1452 4.3965,0 44.7284,-28.2744 92.9671,-65.1739 l 35.9772,-27.5203 6.1336,6.5293 c 9.2203,9.8152 65.8495,94.7964 65.8495,98.8177 0,6.5798 -81.384,68.2316 -148.6398,112.6011 -165.1315,108.939 -354.1891,183.0341 -519.7374,203.6945 -15.9789,1.9942 -29.0549,4.3638 -29.0579,5.2659 0,0.9021 -41.7374,2.0748 -92.7433,2.606 -51.0058,0.5312 -94.804,1.5369 -97.3292,2.2347 -2.5252,0.6978 -5.8639,0 -7.4194,-1.5531 z"
     id="path4599"
     inkscape:connector-curvature="0"
     transform="scale(0.16)" />
  <path
     style="fill:#000000;fill-opacity:1;stroke-width:2.96778584"
     d="m 1736.5087,2689.4044 c -2.8244,-1.1095 -12.7548,-2.1112 -22.0675,-2.2259 l -16.9323,-0.2086 1.4364,-62.7444 c 0.79,-34.5095 2.1648,-63.9229 3.0549,-65.3632 0.8901,-1.4403 1.2943,-17.7076 0.8981,-36.1496 -0.3962,-18.4419 0.2576,-35.113 1.4527,-37.0468 1.1951,-1.9338 2.2747,-19.1985 2.3991,-38.3661 0.1243,-19.1675 0.889,-51.5439 1.6993,-71.9474 0.8103,-20.4035 1.9448,-53.7911 2.5212,-74.1947 0.5764,-20.4035 1.9264,-50.1184 3.0001,-66.0332 1.3818,-20.4833 0.9845,-28.9359 -1.36,-28.9359 -1.8217,0 -24.3875,11.8478 -50.1465,26.3283 -98.5196,55.3836 -208.8804,107.3078 -299.0962,140.7233 -45.429,16.8268 -119.924,39.9534 -150.6151,46.7579 -9.3857,2.0809 -17.0648,4.9852 -17.0648,6.4541 0,1.4688 -1.2467,1.9001 -2.7705,0.9584 -1.5238,-0.9418 -20.5547,1.5391 -42.2909,5.5131 -111.4548,20.3768 -234.22521,19.8488 -330.03024,-1.4193 -138.53995,-30.7551 -279.68833,-118.516 -376.14501,-233.8731 -35.22797,-42.1309 -65.65268,-82.7184 -64.46408,-85.9972 1.49738,-4.1305 92.64188,-80.6968 94.9998,-79.8049 1.08172,0.4092 8.09301,9.0908 15.58065,19.2926 7.48764,10.2017 15.03097,18.5486 16.76296,18.5486 1.73199,0 2.38978,1.2286 1.46176,2.7302 -0.92803,1.5016 1.41981,5.1742 5.21742,8.1614 3.7976,2.9872 7.03788,6.7668 7.20061,8.3991 0.16272,1.6322 10.75723,14.325 23.54334,28.2061 49.13142,53.3388 100.40053,94.7523 154.53531,124.8281 30.3574,16.8658 89.38975,41.7914 100.48808,42.4297 3.91964,0.2256 7.12761,1.5544 7.12874,2.9533 0.001,1.3988 2.00536,1.7746 4.45378,0.8351 2.44843,-0.9396 4.45168,-0.5633 4.45168,0.836 0,2.3595 14.30556,6.2935 28.19397,7.7534 3.26456,0.3431 8.33031,1.6284 11.2572,2.856 2.92689,1.2277 6.14275,1.4111 7.1464,0.4074 1.00361,-1.0036 3.28317,-0.6591 5.06562,0.7655 3.08098,2.4625 45.33551,9.1751 61.11268,9.7085 9.22088,0.3117 99.15483,0.1688 111.29193,-0.1769 18.9824,-0.5406 65.421,-6.8447 67.8788,-9.2146 1.4231,-1.3723 4.428,-1.7887 6.6775,-0.9255 2.2495,0.8632 6.4272,0.5603 9.2837,-0.6732 2.8565,-1.2335 8.1985,-1.9485 11.8711,-1.589 3.6727,0.3595 6.6776,-0.7355 6.6776,-2.4334 0,-1.6979 1.9393,-2.3428 4.3095,-1.4333 2.3703,0.9096 5.909,0.6653 7.8639,-0.5429 1.9549,-1.2082 8.1632,-2.6103 13.7964,-3.1158 5.6332,-0.5055 11.8997,-2.2947 13.9256,-3.9761 2.026,-1.6814 4.4735,-2.2672 5.4389,-1.3017 0.9654,0.9654 3.5136,0.6552 5.6625,-0.6893 2.149,-1.3445 5.2427,-2.5217 6.875,-2.6161 10.8923,-0.6293 28.1939,-5.4409 28.1939,-7.8408 0,-1.5852 1.2235,-2.126 2.7188,-1.2018 1.4953,0.9241 6.5034,0.1211 11.1292,-1.7847 4.6257,-1.9057 10.0798,-3.1923 12.1202,-2.8589 2.0403,0.3333 3.7097,-0.8669 3.7097,-2.667 0,-1.8002 1.1614,-2.5553 2.5809,-1.678 3.0858,1.9071 40.0468,-10.0779 41.3857,-13.4198 0.5135,-1.2817 2.8506,-1.5948 5.1936,-0.6957 2.343,0.899 4.2599,0.077 4.2599,-1.8258 0,-1.9033 1.1399,-2.756 2.5329,-1.8951 3.2802,2.0273 21.2094,-4.7156 21.2094,-7.9764 0,-1.3708 1.1587,-1.7763 2.5748,-0.901 3.5409,2.1884 56.781,-18.8575 56.781,-22.4457 0,-1.5883 1.2354,-2.1244 2.7453,-1.1912 3.0628,1.8929 18.0292,-4.1369 18.0292,-7.2637 0,-1.0983 1.9594,-1.9968 4.3543,-1.9968 6.5009,0 28.2913,-10.3873 28.2913,-13.4863 0,-1.4807 1.3355,-1.8668 2.9678,-0.858 1.6323,1.0088 2.9678,0.341 2.9678,-1.4839 0,-1.825 1.3255,-2.4989 2.9456,-1.4976 3.7389,2.3109 97.9591,-45.5716 97.9591,-49.7824 0,-1.7211 0.8658,-2.2635 1.9241,-1.2052 2.1205,2.1205 30.7215,-12.5431 30.7215,-15.7508 0,-1.1008 1.6694,-2.0113 3.7098,-2.0233 5.9349,-0.035 37.8392,-19.0226 37.8392,-22.5199 0,-1.7485 0.8371,-2.3421 1.8602,-1.319 2.517,2.5171 18.9143,-6.1744 18.9143,-10.0256 0,-1.6867 1.2868,-2.2714 2.8596,-1.2994 1.5727,0.972 5.3566,-0.6186 8.4087,-3.5346 3.0521,-2.916 7.4412,-5.7091 9.7535,-6.2069 2.3125,-0.4978 5.5448,-2.501 7.183,-4.4517 1.6381,-1.9506 4.9258,-3.9748 7.3058,-4.498 2.38,-0.5233 11.2657,-5.1014 19.7459,-10.1736 14.8016,-8.8533 15.4971,-9.8514 17.3831,-24.9462 1.0805,-8.6482 1.9936,-26.1058 2.0292,-38.7949 0.036,-12.689 0.8439,-40.4324 1.7964,-61.6521 0.9525,-21.2197 2.3863,-54.9418 3.1861,-74.9382 0.7999,-19.9963 2.1231,-52.7161 2.9406,-72.7107 1.8328,-44.8295 4.0332,-102.1109 5.7286,-149.1297 0.7063,-19.5874 1.9384,-45.4326 2.738,-57.4339 l 1.4538,-21.8204 -11.3846,1.7825 c -6.2616,0.9804 -16.7267,1.9321 -23.2558,2.1149 -16.2073,0.4536 -63.8069,8.7457 -63.8095,11.1159 0,1.0546 -3.6328,2.1284 -8.0703,2.386 -4.4375,0.2577 -8.5571,1.9354 -9.1547,3.7283 -0.5977,1.7928 -2.1546,2.5996 -3.46,1.7928 -3.4141,-2.11 -20.8619,4.4393 -20.8619,7.8309 0,1.569 -1.2307,2.092 -2.7349,1.1624 -5.4028,-3.3391 -101.1376,45.4293 -101.1376,51.5207 0,1.2376 -1.7106,2.2501 -3.8012,2.2501 -4.6403,0 -19.9411,9.7502 -19.9411,12.7071 0,1.1725 -1.7488,2.1319 -3.8862,2.1319 -5.3992,0 -40.6306,24.2662 -40.6306,27.985 0,1.6678 -1.2534,2.2577 -2.7854,1.3109 -1.532,-0.9468 -3.9892,0.4296 -5.4604,3.0586 -1.4713,2.629 -3.4531,4.3264 -4.404,3.7721 -0.951,-0.5543 -25.5377,16.4794 -54.6373,37.8526 -67.7142,49.7353 -82.87,59.8251 -116.9634,77.8671 -52.3683,27.7129 -112.5215,46.6069 -177.0234,55.6029 -48.2793,6.7334 -145.00546,4.6004 -194.72991,-4.2942 -19.33658,-3.4589 -36.25017,-5.6134 -37.58579,-4.788 -1.33563,0.8255 -2.87635,0.4695 -3.42385,-0.791 -0.5475,-1.2605 -16.43465,-6.5114 -35.30481,-11.6686 -92.099,-25.1708 -201.55736,-73.4076 -304.01821,-133.9768 -38.03854,-22.4863 -96.45304,-59.8573 -96.45304,-61.7064 0,-3.3965 49.32272,-95.8506 59.0046,-110.6025 2.15557,-3.2844 12.74689,2.0429 51.24455,25.7752 26.69007,16.4534 50.52582,30.336 52.96834,30.8501 2.44252,0.5142 5.78128,2.5183 7.41947,4.4538 4.46682,5.2772 75.5408,42.8394 81.97683,43.3242 3.07097,0.2313 5.58358,1.5507 5.58358,2.932 0,1.3813 1.33551,1.686 2.96779,0.6772 1.63228,-1.0088 2.96779,-0.686 2.96779,0.7173 0,3.6287 26.53257,16.0655 29.87147,14.002 1.5258,-0.943 2.77417,-0.5189 2.77417,0.9425 0,3.5028 35.61723,18.8157 38.95979,16.7499 1.42406,-0.8802 2.58921,-0.3307 2.58921,1.2209 0,2.5547 11.90774,7.3391 19.29061,7.7509 1.63228,0.091 3.63554,0.9571 4.45168,1.9247 2.74253,3.2515 39.32649,14.4533 41.93588,12.8406 1.4195,-0.8773 2.58091,-0.038 2.58091,1.8654 0,1.9032 2.00326,2.6917 4.45168,1.7522 2.44842,-0.9396 4.45168,-0.5321 4.45168,0.9055 0,2.2162 18.63375,7.1645 28.19396,7.487 1.63229,0.055 3.70098,1.0802 4.59713,2.2779 0.89613,1.1978 6.90589,2.7129 13.35504,3.3669 6.44912,0.6541 14.12043,2.1762 17.04732,3.3825 2.92689,1.2064 6.14275,1.3722 7.1464,0.3686 1.00361,-1.0036 3.41945,-0.5013 5.36851,1.1163 6.01995,4.9961 38.72976,7.1941 108.58031,7.2965 49.16031,0.072 68.24601,-0.8852 71.49991,-3.5858 2.4413,-2.0262 5.26,-2.8628 6.2636,-1.8592 1.0036,1.0036 4.2195,0.8376 7.1464,-0.369 2.9269,-1.2066 9.3281,-2.6181 14.225,-3.1367 14.3123,-1.5158 57.8718,-16.1551 57.8718,-19.4494 0,-1.6576 1.2149,-2.263 2.6997,-1.3453 3.7541,2.3202 29.9459,-9.2766 29.9459,-13.259 0,-1.7866 1.3355,-2.423 2.9678,-1.4142 1.6323,1.0088 2.9678,0.6424 2.9678,-0.8141 0,-1.4566 1.7195,-2.6483 3.8211,-2.6483 5.5613,0 31.7923,-15.8853 31.7923,-19.2532 0,-1.5735 1.345,-2.0297 2.9888,-1.0137 1.6438,1.0159 3.787,-0.2331 4.7627,-2.7756 0.9756,-2.5425 2.9788,-3.878 4.4516,-2.9678 1.4728,0.9102 3.479,-0.433 4.4582,-2.9849 0.9793,-2.5518 3.6828,-4.6397 6.0078,-4.6397 2.325,0 4.9931,-1.9956 5.929,-4.4347 0.936,-2.439 2.806,-3.7522 4.1555,-2.9181 1.3496,0.8341 4.2145,-0.9973 6.3666,-4.0698 2.152,-3.0725 5.0404,-5.5952 6.4187,-5.6061 1.3783,-0.011 18.7398,-11.9629 38.5812,-26.5599 125.3763,-92.2375 222.8225,-145.7785 307.6277,-169.0233 10.6098,-2.9081 19.6711,-6.1474 20.1361,-7.1984 0.465,-1.0511 4.1376,-1.2817 8.1614,-0.5125 4.0237,0.7692 7.3159,0.1334 7.3159,-1.4129 0,-1.6859 23.4665,-2.6851 58.6138,-2.4957 65.4126,0.3524 73.2498,2.0456 129.2705,27.9272 13.9601,6.4496 26.3557,10.8542 27.5459,9.7881 1.1901,-1.0661 1.008,0.7327 -0.4047,3.9972 -1.4127,3.2646 -2.8522,21.5792 -3.1988,40.6992 -0.3466,19.1199 -1.5056,36.1799 -2.5755,37.9111 -1.0699,1.7312 -1.6212,18.2365 -1.225,36.6784 0.3962,18.442 -0.2454,35.0933 -1.4256,37.003 -1.1803,1.9097 -1.914,18.0426 -1.6306,35.8508 0.2835,17.8082 -0.4105,33.8767 -1.5422,35.7078 -1.1316,1.831 -1.7333,18.418 -1.3372,36.86 0.3962,18.4419 -0.2576,35.113 -1.4526,37.0468 -1.1952,1.9337 -2.2748,19.1985 -2.3991,38.366 -0.1244,19.1676 -0.9268,51.8785 -1.7832,72.691 -2.0983,50.9907 -4.2337,104.4727 -5.9249,148.3893 -1.5394,39.9733 -3.6292,92.4554 -5.9088,148.3865 -2.2802,55.947 -4.3032,106.7579 -5.9377,149.1325 -0.8185,21.2196 -2.154,54.6072 -2.9678,74.1946 -3.0317,72.9731 -4.492,113.7093 -5.2662,146.9054 -0.4377,18.7713 -1.6938,36.4064 -2.7912,39.1893 -1.0974,2.7828 -1.5417,19.6854 -0.9873,37.5612 0.5545,17.8758 0.01,31.88 -1.2177,31.1205 -1.2242,-0.7596 -2.2253,9.048 -2.2245,21.7945 v 23.1755 h -38.6409 c -21.2526,0 -40.9518,-0.9078 -43.7762,-2.0172 z"
     id="path4601"
     inkscape:connector-curvature="0"
     transform="scale(0.16)" />
  <path
     style="fill:#000000;fill-opacity:1;stroke-width:2.96778584"
     d="m 913.74467,3998.6328 c 0.002,-0.8705 -13.68514,-3.2225 -30.41604,-5.2269 C 749.5166,3977.3751 606.80328,3923.1436 477.48391,3839.1837 392.28804,3783.8707 333.64845,3736.0523 249.30953,3653.1166 156.57239,3561.9222 111.24773,3511.4953 37.123699,3417.0452 L 5.6808041,3376.9801 5.6433783,1975.4432 5.6059524,573.90635 H 66.445563 127.28517 v 11.98419 c 0,9.13817 4.51699,20.23867 19.02041,46.74263 10.46122,19.11714 20.81137,36.87298 23.00034,39.45742 2.18896,2.58447 4.41566,6.59098 4.94821,8.90336 1.63291,7.09031 24.52833,47.23727 26.93894,47.23727 1.2459,0 2.26528,1.7195 2.26528,3.82111 0,4.92664 15.70361,31.79232 18.58335,31.79232 1.20513,0 2.19418,1.66938 2.19789,3.70973 0.0101,5.49515 33.49661,58.61377 36.95083,58.61377 1.62976,0 2.13199,1.34494 1.11606,2.98874 -1.01593,1.64383 0.23309,3.78701 2.77559,4.76267 2.54251,0.97563 4.02172,2.74636 3.28714,3.93493 -1.80538,2.92119 12.67208,23.92709 16.49076,23.92709 1.66977,0 2.37868,1.06348 1.57537,2.36325 -3.25478,5.26637 93.14591,132.05048 114.98416,151.22467 5.68859,4.9947 9.7806,9.6436 9.09335,10.3308 -2.00447,2.0045 84.12017,85.39 108.52006,105.0687 41.47719,33.4517 103.95944,74.1996 107.83453,70.3245 1.08544,-1.0855 1.97355,-0.4323 1.97355,1.4515 0,3.6035 36.17758,23.0097 46.13153,24.7458 3.1926,0.5568 7.62911,2.7413 9.85893,4.8546 2.22981,2.1132 5.55664,3.3414 7.39296,2.7293 1.83632,-0.6121 5.19226,0.7406 7.45766,3.0059 2.2654,2.2654 5.94997,3.4163 8.18791,2.5575 2.23795,-0.8588 4.06902,-0.5228 4.06902,0.7467 0,3.0263 29.89364,12.5615 33.12334,10.5654 1.36954,-0.8464 2.49009,0.018 2.49009,1.9215 0,1.9032 2.00325,2.6917 4.45168,1.7522 2.44842,-0.9396 4.45168,-0.2588 4.45168,1.5125 0,1.7714 2.671,2.5223 5.93557,1.6686 3.26456,-0.8537 5.93557,-0.5688 5.93557,0.6332 0,2.4695 46.44071,11.9681 71.22686,14.5682 8.97755,0.9417 39.02639,1.6124 66.77518,1.4904 65.36685,-0.2876 69.40788,-0.4356 73.03543,-2.6775 1.67897,-1.0377 9.84267,-2.3562 18.14154,-2.93 8.29886,-0.5738 16.38246,-2.337 17.96356,-3.9181 1.5811,-1.5811 4.7323,-2.1619 7.0026,-1.2907 2.2703,0.8712 5.903,0.1107 8.0728,-1.6901 2.1698,-1.8007 4.7001,-2.5189 5.623,-1.5961 1.8151,1.8151 50.235,-10.4357 52.6799,-13.3286 0.8161,-0.9657 2.8194,-1.7558 4.4517,-1.7558 6.9772,0 40.0651,-11.562 40.0651,-14.0001 0,-1.4702 1.1692,-1.9504 2.5983,-1.0672 3.4587,2.1376 47.8541,-16.0488 47.8541,-19.6033 0,-1.5274 1.2483,-2.0055 2.7741,-1.0625 3.3389,2.0635 29.8715,-10.3733 29.8715,-14.0019 0,-1.4034 1.2278,-1.7928 2.7285,-0.8653 1.5007,0.9275 4.6805,-0.2656 7.0662,-2.6513 2.3857,-2.3857 5.1644,-3.5109 6.1748,-2.5004 1.0105,1.0104 1.8372,0.056 1.8372,-2.1199 0,-2.1763 0.8285,-3.1286 1.841,-2.116 2.6674,2.6674 36.7402,-15.1348 36.7402,-19.1958 0,-1.8809 0.8371,-2.5826 1.8602,-1.5596 2.2574,2.2574 18.9143,-5.9818 18.9143,-9.3558 0,-1.3183 1.8194,-2.3969 4.043,-2.3969 5.0151,0 25.6349,-12.5285 25.6349,-15.5756 0,-1.2272 1.716,-2.2312 3.8134,-2.2312 12.4177,0 186.1249,-128.5723 186.1249,-137.76346 0,-1.49143 1.143,-2.37782 2.54,-1.96974 7.2628,2.12149 138.0722,-120.69404 210.5053,-197.64116 30.9679,-32.89785 80.0436,-86.52434 109.057,-119.16999 155.7626,-175.26245 262.707,-280.55477 379.7791,-373.912 230.3829,-183.7152 445.0343,-280.674598 667.4211,-301.4782367 46.2427,-4.32587292 144.5232,-2.0360895 187.4834,4.3680713 106.5141,15.8782604 198.9073,46.0231044 299.3101,97.6550854 117.1077,60.22231 223.4022,140.3515 337.2064,254.20008 82.9318,82.96433 139.5147,149.10026 224.7012,262.63798 l 51.1943,68.23263 V 1996.134 c 0,839.9401 1.0247,1305.1676 2.8746,1305.1676 1.5812,0 2.2024,1.7516 1.3809,3.8925 -0.8215,2.141 0.5505,16.4977 3.0491,31.9037 5.9471,36.6721 5.7857,70.7616 -0.4407,92.952 -9.521,33.9331 -39.6663,55.2545 -78.1208,55.2545 -10.3964,0 -17.1419,-2.2193 -27.4036,-9.0164 -11.5334,-7.6394 -87.9631,-76.9906 -136.5366,-123.8917 -7.7533,-7.4863 -14.097,-12.3994 -14.097,-10.9182 0,1.4812 -2.0178,-0.187 -4.4837,-3.708 -9.7423,-13.9094 -148.7119,-117.5878 -157.6132,-117.5878 -2.1139,0 -4.5594,-1.8655 -5.4343,-4.1451 -0.8749,-2.2798 -2.9357,-3.3141 -4.5793,-2.2982 -1.6438,1.0161 -2.9888,0.6104 -2.9888,-0.9014 0,-3.431 -23.7613,-19.3654 -28.8778,-19.3654 -2.0724,0 -3.7679,-1.0491 -3.7679,-2.3312 0,-2.9161 -35.7636,-24.2248 -40.807,-24.3135 -2.0404,-0.036 -3.7098,-1.1441 -3.7098,-2.4624 0,-1.3183 -4.0065,-4.4689 -8.9033,-7.001 -4.8969,-2.5321 -8.9034,-3.6468 -8.9034,-2.4769 0,1.1702 -1.6694,-0.074 -3.7097,-2.7657 -4.9031,-6.4668 -96.8584,-53.1875 -100.3892,-51.0056 -1.5077,0.9319 -2.7414,0.4829 -2.7414,-0.9977 0,-2.6467 -18.0539,-11.5697 -26.6394,-13.1663 -2.4096,-0.4482 -6.1775,-2.4841 -8.3733,-4.5244 -3.5056,-3.2575 -7.9187,-4.319 -14.3659,-3.4563 -1.0417,0.1395 -2.7511,-1.1334 -3.799,-2.8289 -2.688,-4.3493 -71.334,-30.5041 -74.6621,-28.4471 -1.5085,0.9322 -2.7428,0.1365 -2.7428,-1.7655 0,-1.9033 -2.0033,-2.6918 -4.4517,-1.7522 -2.4484,0.9396 -4.4517,0.273 -4.4517,-1.4839 0,-1.7558 -2.0033,-2.4235 -4.4517,-1.4839 -2.4484,0.9396 -4.4517,0.273 -4.4517,-1.4839 0,-1.7557 -2.0032,-2.4235 -4.4516,-1.4839 -2.4485,0.9396 -4.4517,0.273 -4.4517,-1.4839 0,-1.7557 -1.9169,-2.4564 -4.26,-1.5575 -2.343,0.8993 -4.6802,0.4677 -5.1936,-0.9589 -0.5134,-1.4266 -4.9402,-3.0209 -9.837,-3.5429 -4.8969,-0.5224 -9.5883,-1.8513 -10.4256,-2.9539 -2.465,-3.2458 -74.1925,-20.5819 -77.2749,-18.6768 -1.5495,0.9577 -2.817,0.5576 -2.817,-0.8889 0,-3.1165 -37.6452,-10.5205 -41.4704,-8.1563 -1.45,0.8962 -3.5239,0.1929 -4.6086,-1.562 -1.0848,-1.7554 -4.8497,-2.9141 -8.3665,-2.5751 -3.5168,0.3392 -8.7511,-0.4004 -11.632,-1.643 -2.8811,-1.2429 -7.8892,-1.5667 -11.1292,-0.7191 -3.2402,0.8473 -5.8913,0.2285 -5.8913,-1.3768 0,-1.6046 -4.3597,-2.5419 -9.688,-2.0827 -5.3284,0.4591 -11.372,-0.2048 -13.4302,-1.478 -2.0581,-1.272 -8.7164,-2.0344 -14.7962,-1.6943 -6.0797,0.3398 -13.1594,-0.282 -15.7327,-1.3824 -5.2935,-2.2635 -150.4554,-0.3995 -191.0652,2.4535 -14.619,1.0268 -27.3063,2.836 -28.194,4.0201 -0.8876,1.1842 -8.9592,2.5523 -17.9367,3.0408 -8.9776,0.4882 -16.7033,1.9635 -17.1683,3.2782 -0.465,1.3151 -4.1377,1.7614 -8.1614,0.9922 -4.0238,-0.7693 -7.3235,-0.2404 -7.3328,1.1731 -0.01,1.4145 -5.5306,2.7832 -12.2697,3.0417 -6.7391,0.2582 -13.0751,1.5937 -14.0801,2.9678 -1.005,1.3738 -6.5016,2.8776 -12.2146,3.3414 -5.713,0.4639 -10.8352,2.1419 -11.3827,3.7285 -0.5475,1.5865 -2.1351,2.1801 -3.5281,1.3191 -3.5639,-2.2024 -38.5093,7.8644 -38.5093,11.0936 0,1.4611 -1.1152,1.9671 -2.4781,1.1248 -3.281,-2.0279 -24.232,4.4754 -24.232,7.5216 0,1.3073 -2.0033,1.6079 -4.4517,0.6683 -2.4484,-0.9396 -4.4517,-0.1513 -4.4517,1.7522 0,1.9032 -1.1821,2.7301 -2.6268,1.8371 -3.445,-2.1291 -21.1154,4.0685 -21.1154,7.4058 0,1.4215 -1.8311,1.8818 -4.0691,1.023 -2.2379,-0.8589 -5.9225,0.2908 -8.1879,2.5573 -2.2654,2.2656 -5.6213,3.6183 -7.4576,3.0061 -1.8363,-0.612 -5.3381,0.8865 -7.7816,3.3298 -2.4436,2.4437 -5.1043,3.7816 -5.9127,2.9732 -2.0898,-2.09 -22.9791,8.2557 -22.9791,11.3805 0,1.4263 -1.276,1.8047 -2.8355,0.8408 -3.6688,-2.2674 -62.4558,27.1775 -62.4558,31.2822 0,1.7139 -1.3355,2.2906 -2.9678,1.2818 -1.6322,-1.0087 -2.9677,-0.1958 -2.9677,1.8033 0,2.0008 -0.8371,2.8007 -1.8602,1.7774 -2.6373,-2.6372 -18.9143,6.2653 -18.9143,10.3451 0,1.8626 -0.8882,2.4983 -1.9736,1.4126 -6.5101,-6.5098 -127.1159,78.2439 -195.2178,137.1865 -33.9286,29.3654 -120.33,112.6762 -119.8768,115.5891 0.416,2.6736 -93.799,100.3871 -157.511,163.3594 -245.4222,242.5731 -497.3324,395.6527 -731.5642,444.5538 -21.3636,4.46 -39.263,9.0951 -39.7765,10.3003 -0.5135,1.2049 -2.7133,1.5079 -4.8884,0.6734 -2.1751,-0.8345 -14.4422,0.053 -27.2603,1.976 -23.8415,3.5738 -190.99603,8.573 -190.98923,5.7121 z m 166.19973,-140.0051 c 26.0293,-1.8133 77.1625,-11.7141 77.1625,-14.9407 0,-1.4293 1.262,-1.8186 2.8044,-0.8654 2.9207,1.805 42.0819,-6.9873 44.6802,-10.0317 0.8161,-0.9562 5.4904,-2.1656 10.3872,-2.6879 4.8969,-0.5221 9.3235,-2.1163 9.8371,-3.543 0.5135,-1.4266 2.8506,-1.8581 5.1936,-0.9589 2.3429,0.899 4.2609,0.49 4.262,-0.9087 0,-1.399 3.6328,-2.7541 8.0703,-3.012 4.4375,-0.2582 8.5293,-1.8519 9.093,-3.5429 0.5636,-1.6911 2.9418,-2.3389 5.2848,-1.4397 2.3429,0.8989 4.2599,0.077 4.2599,-1.8258 0,-1.9032 1.2326,-2.6986 2.7391,-1.7676 3.6834,2.2763 65.52,-21.7711 65.52,-25.4799 0,-1.6077 1.2483,-2.1517 2.7741,-1.2085 3.3389,2.0635 29.8715,-10.3733 29.8715,-14.002 0,-1.4032 1.3355,-1.7261 2.9678,-0.7173 1.6323,1.0087 2.9678,0.341 2.9678,-1.4839 0,-1.8249 1.2854,-2.5235 2.8565,-1.5528 3.6597,2.2621 32.7569,-12.3762 32.7569,-16.4792 0,-1.7011 1.3355,-2.2674 2.9678,-1.2586 1.6323,1.0087 2.9678,0.1958 2.9678,-1.8033 0,-2.0008 0.8658,-2.7719 1.9241,-1.7136 2.1205,2.1205 30.7215,-12.543 30.7215,-15.7509 0,-1.1008 1.6781,-2.0015 3.729,-2.0015 4.8191,0 59.0606,-32.7623 63.3397,-38.2577 1.7936,-2.3036 3.8296,-3.6198 4.5243,-2.9251 1.6515,1.6516 54.3921,-34.2354 97.5708,-66.3914 39.7809,-29.6256 93.0021,-73.5159 135.0343,-111.3599 34.071,-30.6763 153.2689,-147.6539 151.8757,-149.0473 -0.5108,-0.5107 11.8508,-13.9688 27.4702,-29.907 15.6195,-15.9379 44.4251,-45.4721 64.0125,-65.6314 57.0429,-58.7084 101.3869,-100.8815 138.0021,-131.2467 193.0773,-160.1198 375.7565,-245.2279 602.4605,-280.68 27.9543,-4.3714 52.9239,-5.351 138.0021,-5.4141 113.9113,-0.085 144.5041,2.7999 237.4228,22.385 234.2138,49.3669 491.4013,182.1591 709.3009,366.2289 l 41.549,35.0985 1.8937,-27.8922 c 1.0414,-15.3404 1.9991,-585.4646 2.1285,-1266.9424 l 0.2345,-1239.05063 -38.5676,-50.31991 c -121.5,-158.52416 -242.8658,-283.11303 -360.0678,-369.63011 -39.5333,-29.18284 -96.8505,-65.59602 -100.096,-63.59017 -1.4465,0.89391 -2.6298,0.24526 -2.6298,-1.44144 0,-1.6867 -4.0065,-5.13857 -8.9033,-7.67083 -4.8969,-2.53226 -8.9034,-3.80666 -8.9034,-2.83202 0,0.97465 -2.165,-0.39304 -4.8114,-3.03931 -5.7186,-5.71869 -47.889,-27.28919 -56.1727,-28.73283 -3.1851,-0.5551 -6.5262,-1.99231 -7.4245,-3.1938 -2.8708,-3.83897 -59.8339,-25.97178 -62.5396,-24.29951 -1.4314,0.88449 -2.6022,0.051 -2.6022,-1.8523 0,-1.90325 -2.0032,-2.69173 -4.4516,-1.75219 -2.4485,0.93956 -4.4517,0.27179 -4.4517,-1.48389 0,-1.75569 -2.0033,-2.42344 -4.4517,-1.48389 -2.4484,0.93955 -4.4517,0.27179 -4.4517,-1.48389 0,-1.75569 -1.9169,-2.45655 -4.2599,-1.55747 -2.3431,0.89908 -4.6802,0.62787 -5.1937,-0.60269 -1.3001,-3.11579 -35.3736,-12.42656 -38.4708,-10.51239 -1.3904,0.8593 -2.5279,-0.008 -2.5279,-1.92671 0,-2.02794 -2.4856,-2.83906 -5.9356,-1.93688 -3.2646,0.8537 -5.9356,0.18596 -5.9356,-1.48389 0,-1.66985 -2.6698,-2.33795 -5.9326,-1.48467 -3.2631,0.85328 -6.7523,0.22493 -7.7545,-1.3963 -1.0019,-1.62125 -4.3419,-2.28865 -7.4224,-1.48313 -3.0803,0.80553 -5.6005,0.0985 -5.6005,-1.57132 0,-1.66975 -3.3388,-2.39767 -7.4195,-1.61759 -4.0807,0.78007 -7.4195,0.11642 -7.4195,-1.47476 0,-1.5912 -4.0065,-2.30505 -8.9033,-1.58635 -4.8969,0.71871 -8.9034,0.0564 -8.9034,-1.47174 0,-1.52817 -4.6743,-2.23279 -10.3872,-1.56583 -5.713,0.66696 -10.3873,0.17902 -10.3873,-1.08432 0,-1.26334 -9.0146,-2.4258 -20.0326,-2.58324 -18.819,-0.26891 -122.4076,-0.41524 -146.9818,-0.20762 -15.432,0.13037 -68.194,9.26663 -72.1654,12.49613 -1.7825,1.44949 -3.9714,1.9049 -4.8643,1.01203 -1.8602,-1.86018 -56.4188,10.40957 -58.6701,13.19439 -0.8161,1.00955 -5.4904,2.26275 -10.3872,2.78489 -4.8969,0.52213 -9.3513,2.19984 -9.8988,3.72822 -0.5475,1.52839 -2.0418,2.13222 -3.3206,1.34184 -5.2057,-3.2175 -115.879,38.26678 -115.879,43.43568 0,1.55731 -1.2743,2.04392 -2.8317,1.08135 -5.2514,-3.24554 -127.7509,61.05335 -127.7509,67.05531 0,1.62463 -1.2868,2.1586 -2.8595,1.18659 -1.5727,-0.97201 -5.3567,0.61856 -8.4087,3.53458 -3.0521,2.91603 -7.203,5.66763 -9.2242,6.11467 -6.0233,1.33218 -18.0888,10.04254 -18.0888,13.05873 0,1.54087 -1.3449,1.97037 -2.9887,0.95444 -1.6439,-1.0159 -3.7046,0.0178 -4.5794,2.29802 -0.8749,2.27982 -3.2359,4.14516 -5.2467,4.14516 -4.9545,0 -70.6135,45.88129 -72.4288,50.61191 -0.7943,2.06985 -2.3843,3.18239 -3.5333,2.47223 -2.4988,-1.54435 -64.2078,45.6622 -73.6276,56.32406 -3.6276,4.10599 -7.4182,7.29547 -8.4234,7.0877 -5.8565,-1.21033 -145.7436,126.45314 -151.4753,138.23905 -1.5876,3.26456 -4.2976,5.67153 -6.0221,5.34881 -1.7245,-0.32269 -8.9651,5.3532 -16.0902,12.61309 -7.125,7.25992 -12.0525,13.19985 -10.9499,13.19985 1.1026,0 -16.4236,18.36318 -38.9472,40.80706 -22.5235,22.44388 -72.8675,76.86565 -111.8756,120.93727 -165.905,187.44082 -288.8878,305.84506 -423.007,407.25916 -175.7242,132.8736 -339.6114,209.0339 -504.2454,234.3288 -47.94572,7.3666 -152.27889,7.3426 -196.60559,-0.045 -17.54143,-2.9236 -33.23359,-4.4873 -34.87149,-3.4751 -1.63789,1.0123 -2.97799,0.6704 -2.97799,-0.7598 0,-1.4301 -10.35015,-5.0251 -23.00034,-7.9888 -56.91964,-13.335 -133.34657,-45.7121 -195.48319,-82.8133 C 480.86831,1270.6499 427.39006,1226.922 352.78494,1150.7042 278.77515,1075.0947 233.59632,1018.169 168.76701,918.84 c -20.36659,-31.20491 -38.03178,-56.80871 -39.256,-56.8973 -1.22421,-0.0886 -2.22584,554.5098 -2.22584,1232.4409 v 1232.6018 l 30.12082,36.8685 c 86.61251,106.0156 159.9326,182.6233 244.39938,255.3584 39.45188,33.9722 88.13532,70.8577 91.10218,69.0239 1.3107,-0.8099 2.38308,0 2.38308,1.7759 0,4.2469 71.26485,50.8486 74.60366,48.7851 1.40733,-0.8696 2.55877,-0.2019 2.55877,1.4853 0,3.8513 16.39731,12.5428 18.91435,10.0258 1.02309,-1.0233 1.86015,-0.3294 1.86015,1.5418 0,4.0706 22.20616,15.9408 24.85871,13.2882 1.01825,-1.0182 1.85136,-0.071 1.85136,2.1057 0,2.1763 0.82674,3.1304 1.83721,2.1199 1.01044,-1.0106 3.78912,0.1157 6.17484,2.5003 2.38568,2.3858 5.56546,3.5789 7.06615,2.6514 1.50069,-0.9274 2.72852,-0.1929 2.72852,1.6317 0,1.8249 1.3355,2.4927 2.96779,1.4839 1.63228,-1.0087 2.96778,-0.341 2.96778,1.4839 0,1.8249 1.3355,2.4927 2.96779,1.4839 1.63228,-1.0087 2.96778,-0.341 2.96778,1.4839 0,1.8249 1.33551,2.4927 2.96779,1.4839 1.63228,-1.0087 2.96778,-0.6672 2.96778,0.7592 0,3.6272 20.57762,13.0677 23.94612,10.9861 1.52019,-0.9396 2.76396,-0.4045 2.76396,1.1892 0,3.05 24.18947,13.2808 31.40116,13.2808 2.31674,0 4.21227,1.256 4.21227,2.791 0,1.5346 2.00325,2.0219 4.45168,1.0823 2.44842,-0.9396 4.45168,-0.5526 4.45168,0.8601 0,3.5316 67.375,24.8519 71.15438,22.5163 1.67214,-1.0334 3.04026,-0.309 3.04026,1.61 0,2.0279 2.48567,2.839 5.93558,1.9371 3.26456,-0.8539 5.93557,-0.187 5.93557,1.4839 0,1.6696 2.671,2.3374 5.93557,1.4838 3.26456,-0.8538 5.93557,-0.1869 5.93557,1.4836 0,1.6697 3.33876,2.3977 7.41947,1.6175 4.0807,-0.7799 7.41946,-0.4568 7.41946,0.7182 0,3.061 43.24797,10.0462 47.1745,7.6195 1.80284,-1.1144 3.27786,-0.5499 3.27786,1.2539 0,2.0086 5.15285,3.0129 13.29806,2.5911 7.31393,-0.3786 14.19456,0.2078 15.29033,1.3041 2.05255,2.0525 127.01026,0.8859 161.34986,-1.5068 z"
     id="path4603"
     inkscape:connector-curvature="0"
     transform="scale(0.16)" />
</svg>
