<?xml version="1.0" encoding="UTF-8" standalone="no"?>
<svg
        xmlns:dc="http://purl.org/dc/elements/1.1/"
        xmlns:cc="http://creativecommons.org/ns#"
        xmlns:rdf="http://www.w3.org/1999/02/22-rdf-syntax-ns#"
        xmlns:xlink="http://www.w3.org/1999/xlink"
        xmlns:sodipodi="http://sodipodi.sourceforge.net/DTD/sodipodi-0.dtd"
        xmlns:inkscape="http://www.inkscape.org/namespaces/inkscape"
        xmlns="http://www.w3.org/2000/svg"
        version="1.1"
        preserveAspectRatio="xMidYMid meet"
        viewBox="0 0 640 640"
        width="4000"
        height="4000"
        id="svg3989"
        sodipodi:docname="logo#888888.svg"
        inkscape:version="0.92.4 (5da689c313, 2019-01-14)">
  <metadata
     id="metadata3993">
    <rdf:RDF>
      <cc:Work
         rdf:about="">
        <dc:format>image/svg+xml</dc:format>
        <dc:type
           rdf:resource="http://purl.org/dc/dcmitype/StillImage" />
        <dc:title></dc:title>
      </cc:Work>
    </rdf:RDF>
  </metadata>
  <sodipodi:namedview
     pagecolor="#ffffff"
     bordercolor="#666666"
     borderopacity="1"
     objecttolerance="10"
     gridtolerance="10"
     guidetolerance="10"
     inkscape:pageopacity="0"
     inkscape:pageshadow="2"
     inkscape:window-width="3840"
     inkscape:window-height="2055"
     id="namedview3991"
     showgrid="false"
     inkscape:zoom="0.33695153"
     inkscape:cx="2328.1952"
     inkscape:cy="1879.4448"
     inkscape:window-x="3827"
     inkscape:window-y="47"
     inkscape:window-maximized="1"
     inkscape:current-layer="svg3989" />
  <defs
     id="defs3875">
    <path
       d="M723.17 -84.78L1408.39 -84.78L1408.39 828.85L723.17 828.85L723.17 -84.78Z"
       id="bdQvITgG" />
    <clipPath
       id="clipa6ryQ9tg7">
      <use
         xlink:href="#bdQvITgG"
         opacity="0.3"
         id="use3855" />
    </clipPath>
    <path
       d="M396.12 332.69C406.57 343.88 370.75 299.85 337.91 332.69C316.02 354.58 295.87 354.58 277.46 332.69L277.46 257.31"
       id="bp2xHdO5U" />
    <path
       d="M277.8 255.86C292.22 281.89 311.13 282.67 334.51 258.2C357.9 233.73 379.16 233.73 398.3 258.2L398.3 335.52"
       id="a6rWaoTGC" />
    <path
       d="M330.45 314.03L331.21 296.87L331.94 280.45C328.46 278.96 323.23 280.7 316.27 285.67C309.3 290.65 300.1 289.65 288.66 282.69"
       id="cpYFq3pOz" />
    <path
       d=""
       id="eqTNtFnX" />
    <path
       d="M331.94 296.39C312 308.2 297.58 308.2 288.66 296.39"
       id="a2iGFQJLKJ" />
    <path
       d="M307.31 330.45L307.31 317.01"
       id="bKClLDxAB" />
    <path
       d="M334.93 322.03C319 333.84 302.34 333.84 284.93 322.03"
       id="dhXoTuTSj" />
    <path
       d=""
       id="b1Iju2jD8Y" />
    <path
       d=""
       id="f1a6bUvKwb" />
    <path
       d="M386.62 316.47C374.05 309.23 361.62 308.28 349.34 313.61L349.34 264.04"
       id="a10POjRXx1" />
    <path
       d="M349.34 264.75C363.73 252.75 376.53 251.92 387.75 262.25L387.75 316.47"
       id="e3UnUk6rcj" />
    <path
       d="M349.34 269.63C348.56 265.13 349.24 263.13 351.38 263.63"
       id="b2Nkm3x1VT" />
    <path
       d="M387.67 313.89C389.15 317.99 387.82 318.39 383.67 315.08"
       id="a2iFnsA2aW" />
    <path
       d=""
       id="bdcRHadiW" />
    <path
       d=""
       id="a6eoJQSBz5" />
    <path
       d="M277.46 254.08L277.46 259.08"
       id="b1uEbVqAtK" />
    <path
       d="M391.81 329.25C398.43 336.75 400.6 336.89 398.3 329.68"
       id="c30Kmc1riD" />
    <clipPath
       id="clipa6ryQ9tg7-9">
      <use
         xlink:href="#bdQvITgG"
         opacity="0.3"
         id="use3855-1" />
    </clipPath>
  </defs>
  <g
     id="g3987"
     transform="matrix(5.104274,0,0,5.6592834,-1405.4913,-1346.4563)"
     style="stroke:#888888;stroke-opacity:1">
    <g
       id="g3985"
       style="stroke:#888888;stroke-opacity:1">
      <g
         id="g3881"
         style="stroke:#888888;stroke-opacity:1">
        <g
           clip-path="url(#clipa6ryQ9tg7-9)"
           id="g3879"
           style="opacity:0.3;stroke:#888888;stroke-opacity:1" />
      </g>
      <g
         id="g3887"
         style="stroke:#888888;stroke-opacity:1">
        <g
           id="g3885"
           style="stroke:#888888;stroke-opacity:1">
          <use
             xlink:href="#bp2xHdO5U"
             id="use3883"
             style="opacity:1;fill-opacity:0;stroke:#888888;stroke-width:4;stroke-opacity:1"
             x="0"
             y="0"
             width="100%"
             height="100%" />
        </g>
      </g>
      <g
         id="g3893"
         style="stroke:#888888;stroke-opacity:1">
        <g
           id="g3891"
           style="stroke:#888888;stroke-opacity:1">
          <use
             xlink:href="#a6rWaoTGC"
             id="use3889"
             style="opacity:1;fill-opacity:0;stroke:#888888;stroke-width:4;stroke-opacity:1"
             x="0"
             y="0"
             width="100%"
             height="100%" />
        </g>
      </g>
      <g
         id="g3899"
         style="stroke:#888888;stroke-opacity:1">
        <g
           id="g3897"
           style="stroke:#888888;stroke-opacity:1">
          <use
             xlink:href="#cpYFq3pOz"
             id="use3895"
             style="opacity:1;fill-opacity:0;stroke:#888888;stroke-width:4;stroke-opacity:1"
             x="0"
             y="0"
             width="100%"
             height="100%" />
        </g>
      </g>
      <g
         id="g3905"
         style="stroke:#888888;stroke-opacity:1">
        <g
           id="g3903"
           style="stroke:#888888;stroke-opacity:1">
          <use
             xlink:href="#eqTNtFnX"
             id="use3901"
             style="opacity:1;fill-opacity:0;stroke:#888888;stroke-width:1;stroke-opacity:1"
             x="0"
             y="0"
             width="100%"
             height="100%" />
        </g>
      </g>
      <g
         id="g3911"
         style="stroke:#888888;stroke-opacity:1">
        <g
           id="g3909"
           style="stroke:#888888;stroke-opacity:1">
          <use
             xlink:href="#a2iGFQJLKJ"
             id="use3907"
             style="opacity:1;fill-opacity:0;stroke:#888888;stroke-width:4;stroke-opacity:1"
             x="0"
             y="0"
             width="100%"
             height="100%" />
        </g>
      </g>
      <g
         id="g3917"
         style="stroke:#888888;stroke-opacity:1">
        <g
           id="g3915"
           style="stroke:#888888;stroke-opacity:1">
          <use
             xlink:href="#bKClLDxAB"
             id="use3913"
             style="opacity:1;fill-opacity:0;stroke:#888888;stroke-width:5;stroke-opacity:1"
             x="0"
             y="0"
             width="100%"
             height="100%" />
        </g>
      </g>
      <g
         id="g3923"
         style="stroke:#888888;stroke-opacity:1">
        <g
           id="g3921"
           style="stroke:#888888;stroke-opacity:1">
          <use
             xlink:href="#dhXoTuTSj"
             id="use3919"
             style="opacity:1;fill-opacity:0;stroke:#888888;stroke-width:4;stroke-opacity:1"
             x="0"
             y="0"
             width="100%"
             height="100%" />
        </g>
      </g>
      <g
         id="g3929"
         style="stroke:#888888;stroke-opacity:1">
        <g
           id="g3927"
           style="stroke:#888888;stroke-opacity:1">
          <use
             xlink:href="#b1Iju2jD8Y"
             id="use3925"
             style="opacity:1;fill-opacity:0;stroke:#888888;stroke-width:4;stroke-opacity:1"
             x="0"
             y="0"
             width="100%"
             height="100%" />
        </g>
      </g>
      <g
         id="g3935"
         style="stroke:#888888;stroke-opacity:1">
        <g
           id="g3933"
           style="stroke:#888888;stroke-opacity:1">
          <use
             xlink:href="#f1a6bUvKwb"
             id="use3931"
             style="opacity:1;fill-opacity:0;stroke:#888888;stroke-width:4;stroke-opacity:1"
             x="0"
             y="0"
             width="100%"
             height="100%" />
        </g>
      </g>
      <g
         id="g3941"
         style="stroke:#888888;stroke-opacity:1">
        <g
           id="g3939"
           style="stroke:#888888;stroke-opacity:1">
          <use
             xlink:href="#a10POjRXx1"
             id="use3937"
             style="opacity:1;fill-opacity:0;stroke:#888888;stroke-width:4;stroke-opacity:1"
             x="0"
             y="0"
             width="100%"
             height="100%" />
        </g>
      </g>
      <g
         id="g3947"
         style="stroke:#888888;stroke-opacity:1">
        <g
           id="g3945"
           style="stroke:#888888;stroke-opacity:1">
          <use
             xlink:href="#e3UnUk6rcj"
             id="use3943"
             style="opacity:1;fill-opacity:0;stroke:#888888;stroke-width:4;stroke-opacity:1"
             x="0"
             y="0"
             width="100%"
             height="100%" />
        </g>
      </g>
      <g
         id="g3953"
         style="stroke:#888888;stroke-opacity:1">
        <g
           id="g3951"
           style="stroke:#888888;stroke-opacity:1">
          <use
             xlink:href="#b2Nkm3x1VT"
             id="use3949"
             style="opacity:1;fill-opacity:0;stroke:#888888;stroke-width:4;stroke-opacity:1"
             x="0"
             y="0"
             width="100%"
             height="100%" />
        </g>
      </g>
      <g
         id="g3959"
         style="stroke:#888888;stroke-opacity:1">
        <g
           id="g3957"
           style="stroke:#888888;stroke-opacity:1">
          <use
             xlink:href="#a2iFnsA2aW"
             id="use3955"
             style="opacity:1;fill-opacity:0;stroke:#888888;stroke-width:3;stroke-opacity:1"
             x="0"
             y="0"
             width="100%"
             height="100%" />
        </g>
      </g>
      <g
         id="g3965"
         style="stroke:#888888;stroke-opacity:1">
        <g
           id="g3963"
           style="stroke:#888888;stroke-opacity:1">
          <use
             xlink:href="#bdcRHadiW"
             id="use3961"
             style="opacity:1;fill-opacity:0;stroke:#888888;stroke-width:3;stroke-opacity:1"
             x="0"
             y="0"
             width="100%"
             height="100%" />
        </g>
      </g>
      <g
         id="g3971"
         style="stroke:#888888;stroke-opacity:1">
        <g
           id="g3969"
           style="stroke:#888888;stroke-opacity:1">
          <use
             xlink:href="#a6eoJQSBz5"
             id="use3967"
             style="opacity:1;fill-opacity:0;stroke:#888888;stroke-width:3;stroke-opacity:1"
             x="0"
             y="0"
             width="100%"
             height="100%" />
        </g>
      </g>
      <g
         id="g3977"
         style="stroke:#888888;stroke-opacity:1">
        <g
           id="g3975"
           style="stroke:#888888;stroke-opacity:1">
          <use
             xlink:href="#b1uEbVqAtK"
             id="use3973"
             style="opacity:1;fill-opacity:0;stroke:#888888;stroke-width:4;stroke-opacity:1"
             x="0"
             y="0"
             width="100%"
             height="100%" />
        </g>
      </g>
      <g
         id="g3983"
         style="stroke:#888888;stroke-opacity:1">
        <g
           id="g3981"
           style="stroke:#888888;stroke-opacity:1">
          <use
             xlink:href="#c30Kmc1riD"
             id="use3979"
             style="opacity:1;fill-opacity:0;stroke:#888888;stroke-width:3;stroke-opacity:1"
             x="0"
             y="0"
             width="100%"
             height="100%" />
        </g>
      </g>
    </g>
  </g>
  <path
     style="stroke-width:2.96778584;fill:#888888;fill-opacity:1;stroke:#888888;stroke-opacity:1"
     d="m 900.69018,3997.494 c -176.16157,-20.3157 -340.24805,-89.4698 -503.03971,-212.0061 -59.482,-44.7733 -99.4305,-80.2935 -172.22653,-153.136 C 150.26385,3557.144 101.81118,3502.3789 38.968757,3421.6055 L 4.4188381,3377.1974 V 1975.5519 573.90635 H 66.742342 129.06585 v 14.59163 c 0,8.02536 1.11245,15.03676 2.47211,15.58087 1.35966,0.54409 11.60783,18.3508 22.77371,39.57047 77.39864,147.08857 157.33744,268.41605 237.57854,360.58598 25.98243,29.845 87.73419,91.8133 112.60055,112.9954 152.02466,129.5 318.80627,180.4011 495.62024,151.2615 248.3348,-40.9265 521.3632,-233.0576 826.7826,-581.80998 C 1996.6275,492.86654 2121.6034,372.47521 2265.0951,264.55595 2536.0546,60.768815 2806.1406,-27.000247 3061.2383,5.8355865 3376.2673,46.385707 3667.489,256.44136 3952.5128,648.7045 l 31.7069,43.63642 V 1993.4815 3294.622 l 6.2413,36.7275 c 11.2423,66.1555 5.3746,109.2368 -18.0715,132.6829 -13.1274,13.1274 -22.9006,17.6628 -46.9453,21.7859 -19.8429,3.4026 -21.1526,3.2453 -36.5483,-4.3947 -11.4455,-5.6794 -34.5002,-25.7951 -81.3986,-71.0223 -65.9944,-63.6427 -109.1576,-100.3501 -169.0246,-143.7436 -227.3158,-164.7649 -459.0287,-259.7151 -683.4772,-280.0717 -57.8486,-5.2464 -165.5984,-2.3457 -221.6975,5.9682 -229.4192,34.0005 -443.9545,152.1356 -639.6345,352.2177 -23.7102,24.2436 -67.2878,70.1217 -96.8391,101.9512 -270.9478,291.8357 -547.8408,473.9949 -809.6494,532.6434 -67.0381,15.0176 -107.9826,19.7093 -182.6123,20.9261 -46.01079,0.7503 -81.35661,-0.2018 -103.87252,-2.7986 z M 1111.403,3853.5145 c 140.669,-24.1767 270.0273,-77.9788 412.5222,-171.5739 138.3785,-90.8914 258.3715,-196.644 417.1204,-367.617 77.5257,-83.4953 131.919,-136.2213 191.628,-185.754 190.5727,-158.0933 386.1152,-247.1606 608.0438,-276.9569 47.8193,-6.4202 155.2815,-8.8364 207.7451,-4.6709 165.7811,13.1626 324.2312,58.7736 491.1685,141.3866 137.2215,67.9074 284.9048,166.7542 395.1595,264.4867 11.67,10.3448 22.0201,18.8086 23.0004,18.8086 0.9799,0 1.7818,-569.5867 1.7818,-1265.7483 V 740.12705 l -39.7894,-52.69054 C 3708.4032,539.94369 3585.8233,413.05402 3472.2767,327.71219 3337.7259,226.58354 3203.2311,167.12574 3058.2705,144.68724 c -42.5135,-6.58069 -153.3968,-7.44645 -195.8738,-1.52936 -219.0468,30.51348 -428.6139,140.14919 -661.8163,346.23133 -57.9959,51.25129 -165.7242,159.81147 -225.2317,226.97086 -26.7566,30.19723 -68.1324,76.93985 -91.9462,103.87251 -52.7833,59.69642 -162.0231,170.97332 -218.8995,222.98162 -317.2463,290.0934 -609.319,410.203 -879.28711,361.591 -62.06501,-11.1758 -115.27739,-29.1711 -179.82041,-60.8115 -84.80133,-41.5715 -156.9418,-94.6896 -237.71932,-175.0363 -80.62404,-80.194 -138.74363,-153.145 -210.13058,-263.7531 l -28.47973,-44.12697 v 1232.79787 1232.798 l 29.82675,37.0246 c 218.24528,270.9132 440.58159,430.6465 670.76027,481.8957 60.97111,13.575 92.66582,16.3956 171.94203,15.301 57.406,-0.7927 80.5193,-2.346 109.8081,-7.38 z"
     id="path3786"
     inkscape:connector-curvature="0"
     transform="scale(0.16)" />
  <path
     style="fill:#888888;fill-opacity:1;stroke-width:2.96778584;stroke:#888888;stroke-opacity:1"
     d="m 1736.4928,2689.8956 c -21.6686,-1.1467 -39.8321,-2.608 -40.3634,-3.2473 -0.5312,-0.6392 3.3862,-108.6703 8.7054,-240.069 5.3192,-131.3988 9.1826,-239.4067 8.5854,-240.0176 -0.5972,-0.6109 -16.1668,7.6131 -34.5991,18.2756 -185.178,107.1194 -373.0558,181.7723 -528.1876,209.8743 -108.0689,19.5767 -223.77994,20.0032 -317.01528,1.1685 -142.70664,-28.8284 -278.35752,-109.4343 -381.05254,-226.4272 -30.61802,-34.8809 -76.67364,-94.9223 -75.35164,-98.2337 1.18521,-2.9689 97.53414,-83.941 98.35498,-82.658 7.49002,11.7069 41.04054,54.9066 58.43951,75.2468 88.71415,103.7106 199.76331,170.6555 324.83587,195.8239 128.53365,25.865 272.0797,10.3647 440.7162,-47.5891 112.145,-38.5399 231.3216,-95.9697 366.9305,-176.8197 l 53.829,-32.0929 1.8959,-34.9564 c 1.0427,-19.226 5.1733,-120.4286 9.179,-224.8947 4.0058,-104.4661 7.7173,-198.46 8.2479,-208.8755 l 0.9647,-18.9371 -32.811,1.5947 c -86.9566,4.2265 -192.7559,56.9431 -344.9691,171.8876 -79.8695,60.3138 -116.4178,81.9105 -176.7639,104.451 -107.8473,40.2833 -234.35751,45.0099 -364.31652,13.6115 -115.24088,-27.8425 -248.15016,-88.1533 -382.84439,-173.7249 -18.77124,-11.9254 -36.65226,-23.5577 -39.7356,-25.8497 -5.3338,-3.9647 -4.05988,-7.0009 26.23137,-62.5191 17.51059,-32.0936 32.30277,-58.352 32.87152,-58.352 0.56875,0 17.49883,10.5344 37.62241,23.4097 126.58197,80.9886 243.0204,134.3431 350.78928,160.739 95.40325,23.3671 190.23633,23.8675 268.87623,1.4188 61.0683,-17.4327 94.8331,-36.1321 179.551,-99.4375 114.4276,-85.506 192.6218,-132.5735 270.0685,-162.5627 63.642,-24.6436 99.1736,-31.9471 154.3249,-31.7214 50.419,0.2063 69.7385,4.471 116.7776,25.7781 l 33.89,15.351 -1.7537,29.8028 c -0.9645,16.3915 -11.9061,289.5582 -24.3145,607.0371 -12.4084,317.4789 -23.2103,581.5748 -24.0041,586.8797 l -1.4434,9.6453 -21.382,-0.4624 c -11.7601,-0.2544 -39.1108,-1.4007 -60.7794,-2.5475 z"
     id="path4593"
     inkscape:connector-curvature="0"
     transform="scale(0.16)" />
  <path
     style="fill:#888888;fill-opacity:1;stroke-width:2.96778584;stroke:#888888;stroke-opacity:1"
     d="m 1035.4277,3354.583 c -208.49219,-18.1417 -407.90681,-90.0097 -623.83185,-224.8257 -37.65957,-23.5133 -126.0451,-84.7896 -135.38354,-93.8593 -3.22054,-3.1279 2.2427,-13.8717 30.84143,-60.6517 l 34.75526,-56.8504 9.31185,7.1025 c 137.26471,104.6969 305.00757,194.1672 454.03767,242.1736 39.87915,12.8462 118.29013,32.7249 129.082,32.7249 h 6.21799 v -200.3256 -200.3255 h 78.64629 78.6464 v 209.6665 209.6665 l 55.6459,-1.7389 c 85.3078,-2.6658 154.5247,-13.6794 239.6488,-38.1322 138.2092,-39.7022 283.3125,-115.6896 417.9824,-218.8882 22.5905,-17.3113 43.3945,-33.1545 46.2312,-35.2072 4.6138,-3.3387 8.9669,1.8768 41.2825,49.461 19.8686,29.2563 36.1248,54.4613 36.1248,56.0111 0,5.49 -87.5664,71.5215 -147.0691,110.9009 -176.6901,116.9352 -355.2126,185.5042 -544.425,209.1091 -42.2236,5.2675 -165.7835,7.6398 -207.745,3.9886 z"
     id="path4595"
     inkscape:connector-curvature="0"
     transform="scale(0.16)" />
  <path
     style="fill:#000000;fill-opacity:1;stroke-width:2.96778584;stroke:#888888;stroke-opacity:1"
     d="m 3553.594,2854.9402 c -16.7785,-5.3202 -32.5166,-13.786 -73.7602,-39.6766 -74.1014,-46.5171 -183.8864,-98.5845 -270.503,-128.2906 -128.4411,-44.0503 -242.8539,-61.8182 -376.4426,-58.4603 -162.1173,4.0749 -288.4335,37.0843 -468.2356,122.3611 -36.0249,17.0859 -66.0434,31.0653 -66.7079,31.0653 -0.6644,0 -1.2349,-374.9427 -1.2677,-833.2059 -0.038,-531.6577 -1.1176,-840.1875 -2.9829,-852.4965 -6.4162,-42.3407 -7.0133,-103.50245 -1.3473,-138.00207 9.3774,-57.09848 38.1105,-100.03445 75.9263,-113.45712 9.6502,-3.4253 27.9271,-15.9552 52.5055,-35.9955 155.6119,-126.88028 307.131,-209.3936 453.1924,-246.79667 72.7787,-18.637 102.5511,-22.20646 184.0028,-22.06044 79.2684,0.14211 102.0078,2.91836 170.1813,20.77738 133.477,34.96624 263.2415,114.07336 384.0527,234.12659 l 34.8715,34.6527 v 983.53693 c 0,976.4882 -0.043,983.6506 -5.9396,999.4116 -13.959,37.3088 -49.5091,54.5711 -87.5457,42.5101 z M 3522.4322,1785.3679 V 889.70147 l -21.3855,-19.14693 c -114.1621,-102.21192 -215.3856,-157.74312 -333.168,-182.77602 -48.8434,-10.38094 -140.6163,-13.13134 -191.5191,-5.73975 -165.4851,24.03013 -336.1286,112.51232 -517.8786,268.53078 -17.9551,15.4131 -33.6268,29.45284 -34.826,31.19947 -1.1993,1.74663 -2.2009,360.91258 -2.2259,798.14648 -0.043,755.8073 0.2104,794.8856 5.1482,793.2403 2.8565,-0.9518 30.5682,-10.435 61.5816,-21.0738 133.5791,-45.8229 234.9592,-62.5802 376.9088,-62.2999 110.8983,0.219 172.9228,7.8348 278.9718,34.2545 116.1139,28.9271 256.4461,86.7085 359.1021,147.8593 8.1614,4.8617 15.8406,8.9067 17.0648,8.9889 1.2242,0.082 2.2258,-402.9004 2.2258,-895.5169 z"
     id="path4597"
     inkscape:connector-curvature="0"
     transform="scale(0.16)" />
  <path
     style="fill:#000000;fill-opacity:1;stroke-width:2.96778584;stroke:#888888;stroke-opacity:1"
     d="m 1036.772,3354.8853 c -1.5555,-1.552 -14.5019,-3.2253 -28.7696,-3.7185 -14.26777,-0.4932 -25.95343,-1.7259 -25.96815,-2.7392 -0.0148,-1.0134 -7.95826,-2.7399 -17.65233,-3.8367 -55.9533,-6.3303 -165.56978,-34.1006 -237.52398,-60.1743 -138.53177,-50.199 -298.99857,-137.7121 -429.56223,-234.2685 l -21.69311,-16.0428 6.29633,-12.5653 c 7.85411,-15.6741 59.13157,-100.115 60.79568,-100.115 0.67251,0 13.5798,9.1539 28.68286,20.3421 53.70964,39.7874 161.49881,108.262 170.42044,108.262 2.16979,0 3.94508,1.0904 3.94508,2.4231 0,3.3816 28.53855,17.5121 30.8003,15.2504 1.01493,-1.0149 1.84534,-0.367 1.84534,1.4398 0,3.49 72.19786,40.2424 79.05383,40.2424 2.2243,0 4.04418,1.0093 4.04418,2.243 0,1.8566 18.71313,9.4576 23.74228,9.6438 0.81614,0.03 3.24866,1.8198 5.40562,3.9767 3.43954,3.4395 7.74625,4.5447 14.29514,3.6682 1.04169,-0.1395 2.71107,1.0626 3.70973,2.6712 0.99863,1.6085 4.4867,3.392 7.75127,3.9632 3.26456,0.5712 6.72348,2.1071 7.6865,3.4131 0.96299,1.306 4.63562,2.5918 8.16141,2.8574 3.52576,0.2656 6.41048,1.4281 6.41048,2.5833 0,2.1531 17.51255,7.1221 21.51645,6.1052 1.22421,-0.311 2.22584,0.913 2.22584,2.7199 0,1.8069 1.91698,2.5497 4.25993,1.6506 2.34298,-0.899 4.68011,-0.5316 5.19362,0.8165 1.28458,3.3724 67.42715,24.4499 70.59042,22.4949 1.40089,-0.8658 2.995,-0.4554 3.5425,0.912 1.29538,3.2354 73.80361,21.2931 85.49942,21.2931 h 8.98126 v -200.3256 -200.3255 h 80.18839 80.1883 l -0.8001,210.897 -0.8,210.897 20.7745,-1.938 c 11.4259,-1.0659 33.4617,-2.3812 48.9684,-2.9229 15.5067,-0.5416 35.5393,-1.6787 44.5168,-2.5268 8.9776,-0.8481 20.7172,-1.5734 26.088,-1.612 5.3709,-0.039 11.3799,-1.0679 13.3533,-2.2875 1.9734,-1.2197 7.2615,-1.8322 11.7512,-1.3613 4.4898,0.471 8.1632,-0.3486 8.1632,-1.8212 0,-1.4726 4.0065,-2.0894 8.9034,-1.3707 4.8968,0.7187 8.9126,0.1534 8.924,-1.256 0.012,-1.4094 6.2473,-2.8497 13.8576,-3.2006 7.6103,-0.3509 14.6124,-1.6864 15.5602,-2.9678 0.9478,-1.2814 7.0653,-2.754 13.5944,-3.2724 6.5292,-0.5184 12.2691,-2.046 12.7554,-3.3947 0.4864,-1.3486 3.4913,-1.7703 6.6776,-0.9371 3.1863,0.8333 5.7932,0.1721 5.7932,-1.4692 0,-1.6413 1.6694,-2.8323 3.7098,-2.6467 7.5231,0.6844 28.9359,-4.5698 28.9359,-7.1002 0,-1.4376 1.6693,-2.0158 3.7097,-1.2849 4.8842,1.7497 89.3686,-27.0046 90.6515,-30.8532 0.5453,-1.6358 2.7362,-2.3047 4.8687,-1.4864 2.1325,0.8183 6.005,-0.6399 8.6056,-3.2405 2.6006,-2.6006 5.4438,-4.6806 6.3182,-4.6223 7.1719,0.4781 10.6198,-0.4055 14.0617,-3.6038 2.1958,-2.0403 5.9638,-4.0891 8.3734,-4.5529 9.0962,-1.7508 20.7038,-7.4017 20.7038,-10.0793 0,-1.5305 1.3355,-1.9574 2.9678,-0.9486 1.6323,1.0088 2.9678,0.1973 2.9678,-1.8034 0,-2.0007 0.8269,-2.8106 1.8377,-1.7999 2.1364,2.1364 43.6776,-18.1074 45.1584,-22.0066 0.5475,-1.4416 2.2169,-1.8662 3.7097,-0.9436 1.4929,0.9227 2.7143,0.4858 2.7143,-0.9707 0,-1.4566 1.7222,-2.6483 3.827,-2.6483 5.0698,0 43.6576,-21.6482 43.6576,-24.4924 0,-1.2197 1.6694,-2.2478 3.7097,-2.2845 4.8506,-0.087 25.9682,-12.7409 25.9682,-15.5599 0,-1.199 1.6955,-2.18 3.7678,-2.18 5.1165,0 28.8778,-15.9344 28.8778,-19.3655 0,-1.5117 1.345,-1.9174 2.9888,-0.9014 1.6438,1.0159 3.7045,-0.018 4.5794,-2.298 0.8748,-2.2799 3.2081,-4.1452 5.185,-4.1452 4.3965,0 44.7284,-28.2744 92.9671,-65.1739 l 35.9772,-27.5203 6.1336,6.5293 c 9.2203,9.8152 65.8495,94.7964 65.8495,98.8177 0,6.5798 -81.384,68.2316 -148.6398,112.6011 -165.1315,108.939 -354.1891,183.0341 -519.7374,203.6945 -15.9789,1.9942 -29.0549,4.3638 -29.0579,5.2659 0,0.9021 -41.7374,2.0748 -92.7433,2.606 -51.0058,0.5312 -94.804,1.5369 -97.3292,2.2347 -2.5252,0.6978 -5.8639,0 -7.4194,-1.5531 z"
     id="path4599"
     inkscape:connector-curvature="0"
     transform="scale(0.16)" />
  <path
     style="fill:#000000;fill-opacity:1;stroke-width:2.96778584;stroke:#888888;stroke-opacity:1"
     d="m 1736.5087,2689.4044 c -2.8244,-1.1095 -12.7548,-2.1112 -22.0675,-2.2259 l -16.9323,-0.2086 1.4364,-62.7444 c 0.79,-34.5095 2.1648,-63.9229 3.0549,-65.3632 0.8901,-1.4403 1.2943,-17.7076 0.8981,-36.1496 -0.3962,-18.4419 0.2576,-35.113 1.4527,-37.0468 1.1951,-1.9338 2.2747,-19.1985 2.3991,-38.3661 0.1243,-19.1675 0.889,-51.5439 1.6993,-71.9474 0.8103,-20.4035 1.9448,-53.7911 2.5212,-74.1947 0.5764,-20.4035 1.9264,-50.1184 3.0001,-66.0332 1.3818,-20.4833 0.9845,-28.9359 -1.36,-28.9359 -1.8217,0 -24.3875,11.8478 -50.1465,26.3283 -98.5196,55.3836 -208.8804,107.3078 -299.0962,140.7233 -45.429,16.8268 -119.924,39.9534 -150.6151,46.7579 -9.3857,2.0809 -17.0648,4.9852 -17.0648,6.4541 0,1.4688 -1.2467,1.9001 -2.7705,0.9584 -1.5238,-0.9418 -20.5547,1.5391 -42.2909,5.5131 -111.4548,20.3768 -234.22521,19.8488 -330.03024,-1.4193 -138.53995,-30.7551 -279.68833,-118.516 -376.14501,-233.8731 -35.22797,-42.1309 -65.65268,-82.7184 -64.46408,-85.9972 1.49738,-4.1305 92.64188,-80.6968 94.9998,-79.8049 1.08172,0.4092 8.09301,9.0908 15.58065,19.2926 7.48764,10.2017 15.03097,18.5486 16.76296,18.5486 1.73199,0 2.38978,1.2286 1.46176,2.7302 -0.92803,1.5016 1.41981,5.1742 5.21742,8.1614 3.7976,2.9872 7.03788,6.7668 7.20061,8.3991 0.16272,1.6322 10.75723,14.325 23.54334,28.2061 49.13142,53.3388 100.40053,94.7523 154.53531,124.8281 30.3574,16.8658 89.38975,41.7914 100.48808,42.4297 3.91964,0.2256 7.12761,1.5544 7.12874,2.9533 0.001,1.3988 2.00536,1.7746 4.45378,0.8351 2.44843,-0.9396 4.45168,-0.5633 4.45168,0.836 0,2.3595 14.30556,6.2935 28.19397,7.7534 3.26456,0.3431 8.33031,1.6284 11.2572,2.856 2.92689,1.2277 6.14275,1.4111 7.1464,0.4074 1.00361,-1.0036 3.28317,-0.6591 5.06562,0.7655 3.08098,2.4625 45.33551,9.1751 61.11268,9.7085 9.22088,0.3117 99.15483,0.1688 111.29193,-0.1769 18.9824,-0.5406 65.421,-6.8447 67.8788,-9.2146 1.4231,-1.3723 4.428,-1.7887 6.6775,-0.9255 2.2495,0.8632 6.4272,0.5603 9.2837,-0.6732 2.8565,-1.2335 8.1985,-1.9485 11.8711,-1.589 3.6727,0.3595 6.6776,-0.7355 6.6776,-2.4334 0,-1.6979 1.9393,-2.3428 4.3095,-1.4333 2.3703,0.9096 5.909,0.6653 7.8639,-0.5429 1.9549,-1.2082 8.1632,-2.6103 13.7964,-3.1158 5.6332,-0.5055 11.8997,-2.2947 13.9256,-3.9761 2.026,-1.6814 4.4735,-2.2672 5.4389,-1.3017 0.9654,0.9654 3.5136,0.6552 5.6625,-0.6893 2.149,-1.3445 5.2427,-2.5217 6.875,-2.6161 10.8923,-0.6293 28.1939,-5.4409 28.1939,-7.8408 0,-1.5852 1.2235,-2.126 2.7188,-1.2018 1.4953,0.9241 6.5034,0.1211 11.1292,-1.7847 4.6257,-1.9057 10.0798,-3.1923 12.1202,-2.8589 2.0403,0.3333 3.7097,-0.8669 3.7097,-2.667 0,-1.8002 1.1614,-2.5553 2.5809,-1.678 3.0858,1.9071 40.0468,-10.0779 41.3857,-13.4198 0.5135,-1.2817 2.8506,-1.5948 5.1936,-0.6957 2.343,0.899 4.2599,0.077 4.2599,-1.8258 0,-1.9033 1.1399,-2.756 2.5329,-1.8951 3.2802,2.0273 21.2094,-4.7156 21.2094,-7.9764 0,-1.3708 1.1587,-1.7763 2.5748,-0.901 3.5409,2.1884 56.781,-18.8575 56.781,-22.4457 0,-1.5883 1.2354,-2.1244 2.7453,-1.1912 3.0628,1.8929 18.0292,-4.1369 18.0292,-7.2637 0,-1.0983 1.9594,-1.9968 4.3543,-1.9968 6.5009,0 28.2913,-10.3873 28.2913,-13.4863 0,-1.4807 1.3355,-1.8668 2.9678,-0.858 1.6323,1.0088 2.9678,0.341 2.9678,-1.4839 0,-1.825 1.3255,-2.4989 2.9456,-1.4976 3.7389,2.3109 97.9591,-45.5716 97.9591,-49.7824 0,-1.7211 0.8658,-2.2635 1.9241,-1.2052 2.1205,2.1205 30.7215,-12.5431 30.7215,-15.7508 0,-1.1008 1.6694,-2.0113 3.7098,-2.0233 5.9349,-0.035 37.8392,-19.0226 37.8392,-22.5199 0,-1.7485 0.8371,-2.3421 1.8602,-1.319 2.517,2.5171 18.9143,-6.1744 18.9143,-10.0256 0,-1.6867 1.2868,-2.2714 2.8596,-1.2994 1.5727,0.972 5.3566,-0.6186 8.4087,-3.5346 3.0521,-2.916 7.4412,-5.7091 9.7535,-6.2069 2.3125,-0.4978 5.5448,-2.501 7.183,-4.4517 1.6381,-1.9506 4.9258,-3.9748 7.3058,-4.498 2.38,-0.5233 11.2657,-5.1014 19.7459,-10.1736 14.8016,-8.8533 15.4971,-9.8514 17.3831,-24.9462 1.0805,-8.6482 1.9936,-26.1058 2.0292,-38.7949 0.036,-12.689 0.8439,-40.4324 1.7964,-61.6521 0.9525,-21.2197 2.3863,-54.9418 3.1861,-74.9382 0.7999,-19.9963 2.1231,-52.7161 2.9406,-72.7107 1.8328,-44.8295 4.0332,-102.1109 5.7286,-149.1297 0.7063,-19.5874 1.9384,-45.4326 2.738,-57.4339 l 1.4538,-21.8204 -11.3846,1.7825 c -6.2616,0.9804 -16.7267,1.9321 -23.2558,2.1149 -16.2073,0.4536 -63.8069,8.7457 -63.8095,11.1159 0,1.0546 -3.6328,2.1284 -8.0703,2.386 -4.4375,0.2577 -8.5571,1.9354 -9.1547,3.7283 -0.5977,1.7928 -2.1546,2.5996 -3.46,1.7928 -3.4141,-2.11 -20.8619,4.4393 -20.8619,7.8309 0,1.569 -1.2307,2.092 -2.7349,1.1624 -5.4028,-3.3391 -101.1376,45.4293 -101.1376,51.5207 0,1.2376 -1.7106,2.2501 -3.8012,2.2501 -4.6403,0 -19.9411,9.7502 -19.9411,12.7071 0,1.1725 -1.7488,2.1319 -3.8862,2.1319 -5.3992,0 -40.6306,24.2662 -40.6306,27.985 0,1.6678 -1.2534,2.2577 -2.7854,1.3109 -1.532,-0.9468 -3.9892,0.4296 -5.4604,3.0586 -1.4713,2.629 -3.4531,4.3264 -4.404,3.7721 -0.951,-0.5543 -25.5377,16.4794 -54.6373,37.8526 -67.7142,49.7353 -82.87,59.8251 -116.9634,77.8671 -52.3683,27.7129 -112.5215,46.6069 -177.0234,55.6029 -48.2793,6.7334 -145.00546,4.6004 -194.72991,-4.2942 -19.33658,-3.4589 -36.25017,-5.6134 -37.58579,-4.788 -1.33563,0.8255 -2.87635,0.4695 -3.42385,-0.791 -0.5475,-1.2605 -16.43465,-6.5114 -35.30481,-11.6686 -92.099,-25.1708 -201.55736,-73.4076 -304.01821,-133.9768 -38.03854,-22.4863 -96.45304,-59.8573 -96.45304,-61.7064 0,-3.3965 49.32272,-95.8506 59.0046,-110.6025 2.15557,-3.2844 12.74689,2.0429 51.24455,25.7752 26.69007,16.4534 50.52582,30.336 52.96834,30.8501 2.44252,0.5142 5.78128,2.5183 7.41947,4.4538 4.46682,5.2772 75.5408,42.8394 81.97683,43.3242 3.07097,0.2313 5.58358,1.5507 5.58358,2.932 0,1.3813 1.33551,1.686 2.96779,0.6772 1.63228,-1.0088 2.96779,-0.686 2.96779,0.7173 0,3.6287 26.53257,16.0655 29.87147,14.002 1.5258,-0.943 2.77417,-0.5189 2.77417,0.9425 0,3.5028 35.61723,18.8157 38.95979,16.7499 1.42406,-0.8802 2.58921,-0.3307 2.58921,1.2209 0,2.5547 11.90774,7.3391 19.29061,7.7509 1.63228,0.091 3.63554,0.9571 4.45168,1.9247 2.74253,3.2515 39.32649,14.4533 41.93588,12.8406 1.4195,-0.8773 2.58091,-0.038 2.58091,1.8654 0,1.9032 2.00326,2.6917 4.45168,1.7522 2.44842,-0.9396 4.45168,-0.5321 4.45168,0.9055 0,2.2162 18.63375,7.1645 28.19396,7.487 1.63229,0.055 3.70098,1.0802 4.59713,2.2779 0.89613,1.1978 6.90589,2.7129 13.35504,3.3669 6.44912,0.6541 14.12043,2.1762 17.04732,3.3825 2.92689,1.2064 6.14275,1.3722 7.1464,0.3686 1.00361,-1.0036 3.41945,-0.5013 5.36851,1.1163 6.01995,4.9961 38.72976,7.1941 108.58031,7.2965 49.16031,0.072 68.24601,-0.8852 71.49991,-3.5858 2.4413,-2.0262 5.26,-2.8628 6.2636,-1.8592 1.0036,1.0036 4.2195,0.8376 7.1464,-0.369 2.9269,-1.2066 9.3281,-2.6181 14.225,-3.1367 14.3123,-1.5158 57.8718,-16.1551 57.8718,-19.4494 0,-1.6576 1.2149,-2.263 2.6997,-1.3453 3.7541,2.3202 29.9459,-9.2766 29.9459,-13.259 0,-1.7866 1.3355,-2.423 2.9678,-1.4142 1.6323,1.0088 2.9678,0.6424 2.9678,-0.8141 0,-1.4566 1.7195,-2.6483 3.8211,-2.6483 5.5613,0 31.7923,-15.8853 31.7923,-19.2532 0,-1.5735 1.345,-2.0297 2.9888,-1.0137 1.6438,1.0159 3.787,-0.2331 4.7627,-2.7756 0.9756,-2.5425 2.9788,-3.878 4.4516,-2.9678 1.4728,0.9102 3.479,-0.433 4.4582,-2.9849 0.9793,-2.5518 3.6828,-4.6397 6.0078,-4.6397 2.325,0 4.9931,-1.9956 5.929,-4.4347 0.936,-2.439 2.806,-3.7522 4.1555,-2.9181 1.3496,0.8341 4.2145,-0.9973 6.3666,-4.0698 2.152,-3.0725 5.0404,-5.5952 6.4187,-5.6061 1.3783,-0.011 18.7398,-11.9629 38.5812,-26.5599 125.3763,-92.2375 222.8225,-145.7785 307.6277,-169.0233 10.6098,-2.9081 19.6711,-6.1474 20.1361,-7.1984 0.465,-1.0511 4.1376,-1.2817 8.1614,-0.5125 4.0237,0.7692 7.3159,0.1334 7.3159,-1.4129 0,-1.6859 23.4665,-2.6851 58.6138,-2.4957 65.4126,0.3524 73.2498,2.0456 129.2705,27.9272 13.9601,6.4496 26.3557,10.8542 27.5459,9.7881 1.1901,-1.0661 1.008,0.7327 -0.4047,3.9972 -1.4127,3.2646 -2.8522,21.5792 -3.1988,40.6992 -0.3466,19.1199 -1.5056,36.1799 -2.5755,37.9111 -1.0699,1.7312 -1.6212,18.2365 -1.225,36.6784 0.3962,18.442 -0.2454,35.0933 -1.4256,37.003 -1.1803,1.9097 -1.914,18.0426 -1.6306,35.8508 0.2835,17.8082 -0.4105,33.8767 -1.5422,35.7078 -1.1316,1.831 -1.7333,18.418 -1.3372,36.86 0.3962,18.4419 -0.2576,35.113 -1.4526,37.0468 -1.1952,1.9337 -2.2748,19.1985 -2.3991,38.366 -0.1244,19.1676 -0.9268,51.8785 -1.7832,72.691 -2.0983,50.9907 -4.2337,104.4727 -5.9249,148.3893 -1.5394,39.9733 -3.6292,92.4554 -5.9088,148.3865 -2.2802,55.947 -4.3032,106.7579 -5.9377,149.1325 -0.8185,21.2196 -2.154,54.6072 -2.9678,74.1946 -3.0317,72.9731 -4.492,113.7093 -5.2662,146.9054 -0.4377,18.7713 -1.6938,36.4064 -2.7912,39.1893 -1.0974,2.7828 -1.5417,19.6854 -0.9873,37.5612 0.5545,17.8758 0.01,31.88 -1.2177,31.1205 -1.2242,-0.7596 -2.2253,9.048 -2.2245,21.7945 v 23.1755 h -38.6409 c -21.2526,0 -40.9518,-0.9078 -43.7762,-2.0172 z"
     id="path4601"
     inkscape:connector-curvature="0"
     transform="scale(0.16)" />
  <path
     style="fill:#888888;fill-opacity:1;stroke-width:2.96778584;stroke:#888888;stroke-opacity:1"
     d="m 913.74467,3998.6328 c 0.002,-0.8705 -13.68514,-3.2225 -30.41604,-5.2269 C 749.5166,3977.3751 606.80328,3923.1436 477.48391,3839.1837 392.28804,3783.8707 333.64845,3736.0523 249.30953,3653.1166 156.57239,3561.9222 111.24773,3511.4953 37.123699,3417.0452 L 5.6808041,3376.9801 5.6433783,1975.4432 5.6059524,573.90635 H 66.445563 127.28517 v 11.98419 c 0,9.13817 4.51699,20.23867 19.02041,46.74263 10.46122,19.11714 20.81137,36.87298 23.00034,39.45742 2.18896,2.58447 4.41566,6.59098 4.94821,8.90336 1.63291,7.09031 24.52833,47.23727 26.93894,47.23727 1.2459,0 2.26528,1.7195 2.26528,3.82111 0,4.92664 15.70361,31.79232 18.58335,31.79232 1.20513,0 2.19418,1.66938 2.19789,3.70973 0.0101,5.49515 33.49661,58.61377 36.95083,58.61377 1.62976,0 2.13199,1.34494 1.11606,2.98874 -1.01593,1.64383 0.23309,3.78701 2.77559,4.76267 2.54251,0.97563 4.02172,2.74636 3.28714,3.93493 -1.80538,2.92119 12.67208,23.92709 16.49076,23.92709 1.66977,0 2.37868,1.06348 1.57537,2.36325 -3.25478,5.26637 93.14591,132.05048 114.98416,151.22467 5.68859,4.9947 9.7806,9.6436 9.09335,10.3308 -2.00447,2.0045 84.12017,85.39 108.52006,105.0687 41.47719,33.4517 103.95944,74.1996 107.83453,70.3245 1.08544,-1.0855 1.97355,-0.4323 1.97355,1.4515 0,3.6035 36.17758,23.0097 46.13153,24.7458 3.1926,0.5568 7.62911,2.7413 9.85893,4.8546 2.22981,2.1132 5.55664,3.3414 7.39296,2.7293 1.83632,-0.6121 5.19226,0.7406 7.45766,3.0059 2.2654,2.2654 5.94997,3.4163 8.18791,2.5575 2.23795,-0.8588 4.06902,-0.5228 4.06902,0.7467 0,3.0263 29.89364,12.5615 33.12334,10.5654 1.36954,-0.8464 2.49009,0.018 2.49009,1.9215 0,1.9032 2.00325,2.6917 4.45168,1.7522 2.44842,-0.9396 4.45168,-0.2588 4.45168,1.5125 0,1.7714 2.671,2.5223 5.93557,1.6686 3.26456,-0.8537 5.93557,-0.5688 5.93557,0.6332 0,2.4695 46.44071,11.9681 71.22686,14.5682 8.97755,0.9417 39.02639,1.6124 66.77518,1.4904 65.36685,-0.2876 69.40788,-0.4356 73.03543,-2.6775 1.67897,-1.0377 9.84267,-2.3562 18.14154,-2.93 8.29886,-0.5738 16.38246,-2.337 17.96356,-3.9181 1.5811,-1.5811 4.7323,-2.1619 7.0026,-1.2907 2.2703,0.8712 5.903,0.1107 8.0728,-1.6901 2.1698,-1.8007 4.7001,-2.5189 5.623,-1.5961 1.8151,1.8151 50.235,-10.4357 52.6799,-13.3286 0.8161,-0.9657 2.8194,-1.7558 4.4517,-1.7558 6.9772,0 40.0651,-11.562 40.0651,-14.0001 0,-1.4702 1.1692,-1.9504 2.5983,-1.0672 3.4587,2.1376 47.8541,-16.0488 47.8541,-19.6033 0,-1.5274 1.2483,-2.0055 2.7741,-1.0625 3.3389,2.0635 29.8715,-10.3733 29.8715,-14.0019 0,-1.4034 1.2278,-1.7928 2.7285,-0.8653 1.5007,0.9275 4.6805,-0.2656 7.0662,-2.6513 2.3857,-2.3857 5.1644,-3.5109 6.1748,-2.5004 1.0105,1.0104 1.8372,0.056 1.8372,-2.1199 0,-2.1763 0.8285,-3.1286 1.841,-2.116 2.6674,2.6674 36.7402,-15.1348 36.7402,-19.1958 0,-1.8809 0.8371,-2.5826 1.8602,-1.5596 2.2574,2.2574 18.9143,-5.9818 18.9143,-9.3558 0,-1.3183 1.8194,-2.3969 4.043,-2.3969 5.0151,0 25.6349,-12.5285 25.6349,-15.5756 0,-1.2272 1.716,-2.2312 3.8134,-2.2312 12.4177,0 186.1249,-128.5723 186.1249,-137.76346 0,-1.49143 1.143,-2.37782 2.54,-1.96974 7.2628,2.12149 138.0722,-120.69404 210.5053,-197.64116 30.9679,-32.89785 80.0436,-86.52434 109.057,-119.16999 155.7626,-175.26245 262.707,-280.55477 379.7791,-373.912 230.3829,-183.7152 445.0343,-280.674598 667.4211,-301.4782367 46.2427,-4.32587292 144.5232,-2.0360895 187.4834,4.3680713 106.5141,15.8782604 198.9073,46.0231044 299.3101,97.6550854 117.1077,60.22231 223.4022,140.3515 337.2064,254.20008 82.9318,82.96433 139.5147,149.10026 224.7012,262.63798 l 51.1943,68.23263 V 1996.134 c 0,839.9401 1.0247,1305.1676 2.8746,1305.1676 1.5812,0 2.2024,1.7516 1.3809,3.8925 -0.8215,2.141 0.5505,16.4977 3.0491,31.9037 5.9471,36.6721 5.7857,70.7616 -0.4407,92.952 -9.521,33.9331 -39.6663,55.2545 -78.1208,55.2545 -10.3964,0 -17.1419,-2.2193 -27.4036,-9.0164 -11.5334,-7.6394 -87.9631,-76.9906 -136.5366,-123.8917 -7.7533,-7.4863 -14.097,-12.3994 -14.097,-10.9182 0,1.4812 -2.0178,-0.187 -4.4837,-3.708 -9.7423,-13.9094 -148.7119,-117.5878 -157.6132,-117.5878 -2.1139,0 -4.5594,-1.8655 -5.4343,-4.1451 -0.8749,-2.2798 -2.9357,-3.3141 -4.5793,-2.2982 -1.6438,1.0161 -2.9888,0.6104 -2.9888,-0.9014 0,-3.431 -23.7613,-19.3654 -28.8778,-19.3654 -2.0724,0 -3.7679,-1.0491 -3.7679,-2.3312 0,-2.9161 -35.7636,-24.2248 -40.807,-24.3135 -2.0404,-0.036 -3.7098,-1.1441 -3.7098,-2.4624 0,-1.3183 -4.0065,-4.4689 -8.9033,-7.001 -4.8969,-2.5321 -8.9034,-3.6468 -8.9034,-2.4769 0,1.1702 -1.6694,-0.074 -3.7097,-2.7657 -4.9031,-6.4668 -96.8584,-53.1875 -100.3892,-51.0056 -1.5077,0.9319 -2.7414,0.4829 -2.7414,-0.9977 0,-2.6467 -18.0539,-11.5697 -26.6394,-13.1663 -2.4096,-0.4482 -6.1775,-2.4841 -8.3733,-4.5244 -3.5056,-3.2575 -7.9187,-4.319 -14.3659,-3.4563 -1.0417,0.1395 -2.7511,-1.1334 -3.799,-2.8289 -2.688,-4.3493 -71.334,-30.5041 -74.6621,-28.4471 -1.5085,0.9322 -2.7428,0.1365 -2.7428,-1.7655 0,-1.9033 -2.0033,-2.6918 -4.4517,-1.7522 -2.4484,0.9396 -4.4517,0.273 -4.4517,-1.4839 0,-1.7558 -2.0033,-2.4235 -4.4517,-1.4839 -2.4484,0.9396 -4.4517,0.273 -4.4517,-1.4839 0,-1.7557 -2.0032,-2.4235 -4.4516,-1.4839 -2.4485,0.9396 -4.4517,0.273 -4.4517,-1.4839 0,-1.7557 -1.9169,-2.4564 -4.26,-1.5575 -2.343,0.8993 -4.6802,0.4677 -5.1936,-0.9589 -0.5134,-1.4266 -4.9402,-3.0209 -9.837,-3.5429 -4.8969,-0.5224 -9.5883,-1.8513 -10.4256,-2.9539 -2.465,-3.2458 -74.1925,-20.5819 -77.2749,-18.6768 -1.5495,0.9577 -2.817,0.5576 -2.817,-0.8889 0,-3.1165 -37.6452,-10.5205 -41.4704,-8.1563 -1.45,0.8962 -3.5239,0.1929 -4.6086,-1.562 -1.0848,-1.7554 -4.8497,-2.9141 -8.3665,-2.5751 -3.5168,0.3392 -8.7511,-0.4004 -11.632,-1.643 -2.8811,-1.2429 -7.8892,-1.5667 -11.1292,-0.7191 -3.2402,0.8473 -5.8913,0.2285 -5.8913,-1.3768 0,-1.6046 -4.3597,-2.5419 -9.688,-2.0827 -5.3284,0.4591 -11.372,-0.2048 -13.4302,-1.478 -2.0581,-1.272 -8.7164,-2.0344 -14.7962,-1.6943 -6.0797,0.3398 -13.1594,-0.282 -15.7327,-1.3824 -5.2935,-2.2635 -150.4554,-0.3995 -191.0652,2.4535 -14.619,1.0268 -27.3063,2.836 -28.194,4.0201 -0.8876,1.1842 -8.9592,2.5523 -17.9367,3.0408 -8.9776,0.4882 -16.7033,1.9635 -17.1683,3.2782 -0.465,1.3151 -4.1377,1.7614 -8.1614,0.9922 -4.0238,-0.7693 -7.3235,-0.2404 -7.3328,1.1731 -0.01,1.4145 -5.5306,2.7832 -12.2697,3.0417 -6.7391,0.2582 -13.0751,1.5937 -14.0801,2.9678 -1.005,1.3738 -6.5016,2.8776 -12.2146,3.3414 -5.713,0.4639 -10.8352,2.1419 -11.3827,3.7285 -0.5475,1.5865 -2.1351,2.1801 -3.5281,1.3191 -3.5639,-2.2024 -38.5093,7.8644 -38.5093,11.0936 0,1.4611 -1.1152,1.9671 -2.4781,1.1248 -3.281,-2.0279 -24.232,4.4754 -24.232,7.5216 0,1.3073 -2.0033,1.6079 -4.4517,0.6683 -2.4484,-0.9396 -4.4517,-0.1513 -4.4517,1.7522 0,1.9032 -1.1821,2.7301 -2.6268,1.8371 -3.445,-2.1291 -21.1154,4.0685 -21.1154,7.4058 0,1.4215 -1.8311,1.8818 -4.0691,1.023 -2.2379,-0.8589 -5.9225,0.2908 -8.1879,2.5573 -2.2654,2.2656 -5.6213,3.6183 -7.4576,3.0061 -1.8363,-0.612 -5.3381,0.8865 -7.7816,3.3298 -2.4436,2.4437 -5.1043,3.7816 -5.9127,2.9732 -2.0898,-2.09 -22.9791,8.2557 -22.9791,11.3805 0,1.4263 -1.276,1.8047 -2.8355,0.8408 -3.6688,-2.2674 -62.4558,27.1775 -62.4558,31.2822 0,1.7139 -1.3355,2.2906 -2.9678,1.2818 -1.6322,-1.0087 -2.9677,-0.1958 -2.9677,1.8033 0,2.0008 -0.8371,2.8007 -1.8602,1.7774 -2.6373,-2.6372 -18.9143,6.2653 -18.9143,10.3451 0,1.8626 -0.8882,2.4983 -1.9736,1.4126 -6.5101,-6.5098 -127.1159,78.2439 -195.2178,137.1865 -33.9286,29.3654 -120.33,112.6762 -119.8768,115.5891 0.416,2.6736 -93.799,100.3871 -157.511,163.3594 -245.4222,242.5731 -497.3324,395.6527 -731.5642,444.5538 -21.3636,4.46 -39.263,9.0951 -39.7765,10.3003 -0.5135,1.2049 -2.7133,1.5079 -4.8884,0.6734 -2.1751,-0.8345 -14.4422,0.053 -27.2603,1.976 -23.8415,3.5738 -190.99603,8.573 -190.98923,5.7121 z m 166.19973,-140.0051 c 26.0293,-1.8133 77.1625,-11.7141 77.1625,-14.9407 0,-1.4293 1.262,-1.8186 2.8044,-0.8654 2.9207,1.805 42.0819,-6.9873 44.6802,-10.0317 0.8161,-0.9562 5.4904,-2.1656 10.3872,-2.6879 4.8969,-0.5221 9.3235,-2.1163 9.8371,-3.543 0.5135,-1.4266 2.8506,-1.8581 5.1936,-0.9589 2.3429,0.899 4.2609,0.49 4.262,-0.9087 0,-1.399 3.6328,-2.7541 8.0703,-3.012 4.4375,-0.2582 8.5293,-1.8519 9.093,-3.5429 0.5636,-1.6911 2.9418,-2.3389 5.2848,-1.4397 2.3429,0.8989 4.2599,0.077 4.2599,-1.8258 0,-1.9032 1.2326,-2.6986 2.7391,-1.7676 3.6834,2.2763 65.52,-21.7711 65.52,-25.4799 0,-1.6077 1.2483,-2.1517 2.7741,-1.2085 3.3389,2.0635 29.8715,-10.3733 29.8715,-14.002 0,-1.4032 1.3355,-1.7261 2.9678,-0.7173 1.6323,1.0087 2.9678,0.341 2.9678,-1.4839 0,-1.8249 1.2854,-2.5235 2.8565,-1.5528 3.6597,2.2621 32.7569,-12.3762 32.7569,-16.4792 0,-1.7011 1.3355,-2.2674 2.9678,-1.2586 1.6323,1.0087 2.9678,0.1958 2.9678,-1.8033 0,-2.0008 0.8658,-2.7719 1.9241,-1.7136 2.1205,2.1205 30.7215,-12.543 30.7215,-15.7509 0,-1.1008 1.6781,-2.0015 3.729,-2.0015 4.8191,0 59.0606,-32.7623 63.3397,-38.2577 1.7936,-2.3036 3.8296,-3.6198 4.5243,-2.9251 1.6515,1.6516 54.3921,-34.2354 97.5708,-66.3914 39.7809,-29.6256 93.0021,-73.5159 135.0343,-111.3599 34.071,-30.6763 153.2689,-147.6539 151.8757,-149.0473 -0.5108,-0.5107 11.8508,-13.9688 27.4702,-29.907 15.6195,-15.9379 44.4251,-45.4721 64.0125,-65.6314 57.0429,-58.7084 101.3869,-100.8815 138.0021,-131.2467 193.0773,-160.1198 375.7565,-245.2279 602.4605,-280.68 27.9543,-4.3714 52.9239,-5.351 138.0021,-5.4141 113.9113,-0.085 144.5041,2.7999 237.4228,22.385 234.2138,49.3669 491.4013,182.1591 709.3009,366.2289 l 41.549,35.0985 1.8937,-27.8922 c 1.0414,-15.3404 1.9991,-585.4646 2.1285,-1266.9424 l 0.2345,-1239.05063 -38.5676,-50.31991 c -121.5,-158.52416 -242.8658,-283.11303 -360.0678,-369.63011 -39.5333,-29.18284 -96.8505,-65.59602 -100.096,-63.59017 -1.4465,0.89391 -2.6298,0.24526 -2.6298,-1.44144 0,-1.6867 -4.0065,-5.13857 -8.9033,-7.67083 -4.8969,-2.53226 -8.9034,-3.80666 -8.9034,-2.83202 0,0.97465 -2.165,-0.39304 -4.8114,-3.03931 -5.7186,-5.71869 -47.889,-27.28919 -56.1727,-28.73283 -3.1851,-0.5551 -6.5262,-1.99231 -7.4245,-3.1938 -2.8708,-3.83897 -59.8339,-25.97178 -62.5396,-24.29951 -1.4314,0.88449 -2.6022,0.051 -2.6022,-1.8523 0,-1.90325 -2.0032,-2.69173 -4.4516,-1.75219 -2.4485,0.93956 -4.4517,0.27179 -4.4517,-1.48389 0,-1.75569 -2.0033,-2.42344 -4.4517,-1.48389 -2.4484,0.93955 -4.4517,0.27179 -4.4517,-1.48389 0,-1.75569 -1.9169,-2.45655 -4.2599,-1.55747 -2.3431,0.89908 -4.6802,0.62787 -5.1937,-0.60269 -1.3001,-3.11579 -35.3736,-12.42656 -38.4708,-10.51239 -1.3904,0.8593 -2.5279,-0.008 -2.5279,-1.92671 0,-2.02794 -2.4856,-2.83906 -5.9356,-1.93688 -3.2646,0.8537 -5.9356,0.18596 -5.9356,-1.48389 0,-1.66985 -2.6698,-2.33795 -5.9326,-1.48467 -3.2631,0.85328 -6.7523,0.22493 -7.7545,-1.3963 -1.0019,-1.62125 -4.3419,-2.28865 -7.4224,-1.48313 -3.0803,0.80553 -5.6005,0.0985 -5.6005,-1.57132 0,-1.66975 -3.3388,-2.39767 -7.4195,-1.61759 -4.0807,0.78007 -7.4195,0.11642 -7.4195,-1.47476 0,-1.5912 -4.0065,-2.30505 -8.9033,-1.58635 -4.8969,0.71871 -8.9034,0.0564 -8.9034,-1.47174 0,-1.52817 -4.6743,-2.23279 -10.3872,-1.56583 -5.713,0.66696 -10.3873,0.17902 -10.3873,-1.08432 0,-1.26334 -9.0146,-2.4258 -20.0326,-2.58324 -18.819,-0.26891 -122.4076,-0.41524 -146.9818,-0.20762 -15.432,0.13037 -68.194,9.26663 -72.1654,12.49613 -1.7825,1.44949 -3.9714,1.9049 -4.8643,1.01203 -1.8602,-1.86018 -56.4188,10.40957 -58.6701,13.19439 -0.8161,1.00955 -5.4904,2.26275 -10.3872,2.78489 -4.8969,0.52213 -9.3513,2.19984 -9.8988,3.72822 -0.5475,1.52839 -2.0418,2.13222 -3.3206,1.34184 -5.2057,-3.2175 -115.879,38.26678 -115.879,43.43568 0,1.55731 -1.2743,2.04392 -2.8317,1.08135 -5.2514,-3.24554 -127.7509,61.05335 -127.7509,67.05531 0,1.62463 -1.2868,2.1586 -2.8595,1.18659 -1.5727,-0.97201 -5.3567,0.61856 -8.4087,3.53458 -3.0521,2.91603 -7.203,5.66763 -9.2242,6.11467 -6.0233,1.33218 -18.0888,10.04254 -18.0888,13.05873 0,1.54087 -1.3449,1.97037 -2.9887,0.95444 -1.6439,-1.0159 -3.7046,0.0178 -4.5794,2.29802 -0.8749,2.27982 -3.2359,4.14516 -5.2467,4.14516 -4.9545,0 -70.6135,45.88129 -72.4288,50.61191 -0.7943,2.06985 -2.3843,3.18239 -3.5333,2.47223 -2.4988,-1.54435 -64.2078,45.6622 -73.6276,56.32406 -3.6276,4.10599 -7.4182,7.29547 -8.4234,7.0877 -5.8565,-1.21033 -145.7436,126.45314 -151.4753,138.23905 -1.5876,3.26456 -4.2976,5.67153 -6.0221,5.34881 -1.7245,-0.32269 -8.9651,5.3532 -16.0902,12.61309 -7.125,7.25992 -12.0525,13.19985 -10.9499,13.19985 1.1026,0 -16.4236,18.36318 -38.9472,40.80706 -22.5235,22.44388 -72.8675,76.86565 -111.8756,120.93727 -165.905,187.44082 -288.8878,305.84506 -423.007,407.25916 -175.7242,132.8736 -339.6114,209.0339 -504.2454,234.3288 -47.94572,7.3666 -152.27889,7.3426 -196.60559,-0.045 -17.54143,-2.9236 -33.23359,-4.4873 -34.87149,-3.4751 -1.63789,1.0123 -2.97799,0.6704 -2.97799,-0.7598 0,-1.4301 -10.35015,-5.0251 -23.00034,-7.9888 -56.91964,-13.335 -133.34657,-45.7121 -195.48319,-82.8133 C 480.86831,1270.6499 427.39006,1226.922 352.78494,1150.7042 278.77515,1075.0947 233.59632,1018.169 168.76701,918.84 c -20.36659,-31.20491 -38.03178,-56.80871 -39.256,-56.8973 -1.22421,-0.0886 -2.22584,554.5098 -2.22584,1232.4409 v 1232.6018 l 30.12082,36.8685 c 86.61251,106.0156 159.9326,182.6233 244.39938,255.3584 39.45188,33.9722 88.13532,70.8577 91.10218,69.0239 1.3107,-0.8099 2.38308,0 2.38308,1.7759 0,4.2469 71.26485,50.8486 74.60366,48.7851 1.40733,-0.8696 2.55877,-0.2019 2.55877,1.4853 0,3.8513 16.39731,12.5428 18.91435,10.0258 1.02309,-1.0233 1.86015,-0.3294 1.86015,1.5418 0,4.0706 22.20616,15.9408 24.85871,13.2882 1.01825,-1.0182 1.85136,-0.071 1.85136,2.1057 0,2.1763 0.82674,3.1304 1.83721,2.1199 1.01044,-1.0106 3.78912,0.1157 6.17484,2.5003 2.38568,2.3858 5.56546,3.5789 7.06615,2.6514 1.50069,-0.9274 2.72852,-0.1929 2.72852,1.6317 0,1.8249 1.3355,2.4927 2.96779,1.4839 1.63228,-1.0087 2.96778,-0.341 2.96778,1.4839 0,1.8249 1.3355,2.4927 2.96779,1.4839 1.63228,-1.0087 2.96778,-0.341 2.96778,1.4839 0,1.8249 1.33551,2.4927 2.96779,1.4839 1.63228,-1.0087 2.96778,-0.6672 2.96778,0.7592 0,3.6272 20.57762,13.0677 23.94612,10.9861 1.52019,-0.9396 2.76396,-0.4045 2.76396,1.1892 0,3.05 24.18947,13.2808 31.40116,13.2808 2.31674,0 4.21227,1.256 4.21227,2.791 0,1.5346 2.00325,2.0219 4.45168,1.0823 2.44842,-0.9396 4.45168,-0.5526 4.45168,0.8601 0,3.5316 67.375,24.8519 71.15438,22.5163 1.67214,-1.0334 3.04026,-0.309 3.04026,1.61 0,2.0279 2.48567,2.839 5.93558,1.9371 3.26456,-0.8539 5.93557,-0.187 5.93557,1.4839 0,1.6696 2.671,2.3374 5.93557,1.4838 3.26456,-0.8538 5.93557,-0.1869 5.93557,1.4836 0,1.6697 3.33876,2.3977 7.41947,1.6175 4.0807,-0.7799 7.41946,-0.4568 7.41946,0.7182 0,3.061 43.24797,10.0462 47.1745,7.6195 1.80284,-1.1144 3.27786,-0.5499 3.27786,1.2539 0,2.0086 5.15285,3.0129 13.29806,2.5911 7.31393,-0.3786 14.19456,0.2078 15.29033,1.3041 2.05255,2.0525 127.01026,0.8859 161.34986,-1.5068 z"
     id="path4603"
     inkscape:connector-curvature="0"
     transform="scale(0.16)" />
  <path
     style="fill:#888888;fill-opacity:1;stroke-width:2.96778584;stroke:#888888;stroke-opacity:1"
     d="m 911.36112,3998.1315 c -1.1423,-1.1462 -12.41273,-2.4817 -25.04541,-2.9678 -12.63268,-0.4864 -22.98001,-2.0374 -22.99408,-3.4468 -0.0148,-1.4094 -4.03206,-1.9747 -8.92891,-1.2559 -4.89685,0.7187 -8.90336,0.2018 -8.90336,-1.1471 0,-1.3494 -2.17633,-2.4538 -4.83627,-2.4538 -10.97757,0 -76.21556,-16.2741 -113.96372,-28.429 C 608.56172,3920.3939 503.45551,3864.0609 390.62661,3778.3141 336.86541,3737.4572 289.49608,3694.3655 213.3043,3617.0046 139.05876,3541.6195 101.20322,3498.8689 42.264038,3423.8465 L 5.6059524,3377.1852 V 1975.5458 573.90635 H 66.067975 126.52999 l 1.4835,14.09698 c 1.04957,9.97366 6.85685,23.64572 19.85419,46.74263 10.10388,17.95511 19.63083,33.09357 21.17098,33.64107 1.54016,0.5475 2.0454,2.21688 1.12275,3.70973 -0.92264,1.49286 -0.0406,2.71431 1.96004,2.71431 2.00066,0 2.80445,0.83312 1.78619,1.85137 -2.65255,2.65254 9.21772,24.8587 13.2882,24.8587 1.87116,0 2.53715,0.86497 1.47998,1.92212 -2.08343,2.08345 9.6919,24.78796 12.85586,24.78796 1.05967,0 1.92667,1.67718 1.92667,3.72709 0,3.48982 14.58171,28.62581 18.49768,31.88634 0.9802,0.81614 5.12095,8.14482 9.20165,16.28596 4.08071,8.14114 9.7566,17.15579 12.61309,20.03256 2.85649,2.87676 5.31535,6.23211 5.46412,7.45632 0.54073,4.4496 9.97803,18.54866 12.41568,18.54866 1.37668,0 1.67184,1.34494 0.65591,2.98874 -1.01593,1.64383 0.23309,3.78701 2.77559,4.76267 2.54251,0.97563 3.87801,2.97889 2.96778,4.45168 -0.91022,1.47277 0.42528,3.47602 2.96779,4.45168 2.54251,0.97563 3.87801,2.97889 2.96779,4.45168 -0.91023,1.47276 0.42528,3.47602 2.96778,4.45168 2.54251,0.97563 3.87801,2.97889 2.96779,4.45168 -0.91023,1.47276 0.43295,3.47896 2.98483,4.45821 2.55188,0.97925 4.63978,3.38229 4.63978,5.34008 0,5.00591 29.4494,46.25769 33.02306,46.25769 1.61739,0 2.24335,1.1283 1.39106,2.50731 -0.85226,1.37904 2.92167,7.38881 8.38655,13.35503 5.46485,5.96626 9.08825,10.89216 8.05196,10.94648 -1.03629,0.0543 1.06392,2.5595 4.66717,5.56715 3.60322,3.00761 5.87001,6.14969 5.03731,6.98237 -0.83267,0.8327 2.07522,4.33724 6.46203,7.78791 4.38677,3.45065 7.03561,6.2739 5.88627,6.2739 -2.96585,0 33.44511,43.57701 43.4337,51.98191 4.56935,3.8448 8.3079,8.2762 8.3079,9.8474 0,4.2595 83.56074,84.1337 111.10565,106.2038 31.26987,25.0547 66.83997,49.6045 71.87177,49.6045 2.19619,0 3.99309,0.981 3.99309,2.18 0,2.819 21.11755,15.4725 25.96813,15.5599 2.04035,0.037 3.70973,0.9968 3.70973,2.1334 0,2.2821 40.44184,23.0299 47.41391,24.3246 2.40958,0.4474 6.2544,2.5597 8.54408,4.694 2.28968,2.1342 5.90782,3.2108 8.04033,2.3925 2.1325,-0.8183 4.29744,-0.3497 4.81096,1.0414 0.51354,1.391 3.6047,2.9854 6.86926,3.543 3.26457,0.5576 6.60333,1.8025 7.41947,2.7664 2.73594,3.2314 30.38763,11.514 33.0162,9.8895 1.42848,-0.8829 2.59723,-0.048 2.59723,1.8553 0,1.9032 1.96049,2.7082 4.35662,1.7886 2.39616,-0.9194 5.20226,-0.3035 6.23579,1.3688 1.0335,1.6722 3.58455,2.386 5.66898,1.5861 2.08439,-0.7998 4.95418,-0.3556 6.37729,0.9872 4.04789,3.8194 47.59721,11.9772 73.81436,13.8271 38.21541,2.6964 131.13601,1.9997 136.02188,-1.02 1.43089,-0.8843 9.36764,-2.1363 17.63722,-2.7823 8.26963,-0.6459 16.59953,-2.4723 18.51103,-4.0587 1.9114,-1.5864 4.2965,-2.0632 5.3001,-1.0596 1.0037,1.0037 4.2196,0.8165 7.1464,-0.4159 2.9269,-1.2324 9.3282,-2.7471 14.225,-3.366 12.3173,-1.5567 40.8604,-9.961 44.7899,-13.188 1.7824,-1.4639 3.9005,-2.0019 4.7067,-1.1957 1.5071,1.5071 32.3186,-8.3428 38.8509,-12.42 2.0096,-1.2544 6.0229,-2.6497 8.9184,-3.1007 6.5869,-1.0259 41.6967,-15.6743 43.704,-18.2339 0.8161,-1.0408 3.4871,-2.2589 5.9355,-2.707 8.5957,-1.5732 26.7101,-10.5024 26.7101,-13.1662 0,-1.4807 1.2278,-1.9334 2.7285,-1.0059 1.5007,0.9275 4.6805,-0.2656 7.0662,-2.6513 2.3857,-2.3857 5.1644,-3.5109 6.1748,-2.5004 1.0105,1.0104 1.8372,0.056 1.8372,-2.1199 0,-2.1763 0.8641,-3.093 1.9201,-2.0369 2.5484,2.5484 36.6611,-15.7316 36.6611,-19.6457 0,-1.6769 0.8371,-2.2118 1.8602,-1.1888 2.517,2.5171 18.9143,-6.1744 18.9143,-10.0256 0,-1.6867 1.2868,-2.2714 2.8596,-1.2994 1.5727,0.972 5.3566,-0.6185 8.4087,-3.5346 3.052,-2.916 7.4412,-5.7091 9.7535,-6.2069 2.3125,-0.4978 5.7522,-2.9239 7.6439,-5.3913 1.8917,-2.4674 4.1205,-4.0633 4.9528,-3.5466 2.1217,1.3172 52.7328,-31.5073 62.4137,-40.4793 4.3899,-4.0684 8.2837,-7.1376 8.6529,-6.8203 1.5894,1.3657 28.8653,-19.0887 28.8653,-21.6464 0,-1.5538 1.1452,-2.4913 2.545,-2.0832 3.5062,1.0222 50.8751,-35.8628 50.8751,-39.6151 0,-1.6644 1.0694,-2.3653 2.3765,-1.5575 1.307,0.8078 9.5465,-5.1231 18.3101,-13.1799 8.7635,-8.0567 16.9239,-14.64855 18.1342,-14.64855 1.2103,0 5.5096,-3.93247 9.5538,-8.73879 4.0443,-4.80633 7.9822,-8.10981 8.751,-7.34103 0.7688,0.76877 6.1519,-3.86444 11.9624,-10.29602 5.8105,-6.43158 11.1321,-11.12629 11.8257,-10.43272 0.6935,0.69357 8.1463,-6.01911 16.5616,-14.91707 8.4153,-8.89799 15.3006,-15.3298 15.3006,-14.29295 0,2.52274 151.2599,-148.58439 151.3144,-151.16159 0.024,-1.10862 8.0262,-9.63073 17.7839,-18.93798 9.7577,-9.30727 17.1107,-17.94266 16.3399,-19.18979 -0.7707,-1.24712 0.4236,-2.96778 2.6541,-3.82372 2.2306,-0.85594 25.873,-26.03657 52.5388,-55.95695 210.2045,-235.86048 349.9684,-363.99675 519.1221,-475.93392 154.7145,-102.38207 315.0842,-169.124816 460.8103,-191.780356 12.6163,-1.961417 22.9388,-4.3636926 22.9388,-5.3383894 0,-0.9746969 5.342,-1.262733 11.8711,-0.6400805 6.5292,0.6226524 11.8694,-0.00979 11.8672,-1.4054666 0,-1.3956592 7.343,-2.0800858 16.3228,-1.5209481 8.9798,0.559138 16.3268,-0.1086138 16.3268,-1.483893 0,-1.37527876 28.0456,-2.50050707 62.3235,-2.50050707 34.278,0 62.3235,1.12522831 62.3235,2.50050707 0,1.3752792 7.3471,2.043031 16.327,1.483893 8.9796,-0.5591377 16.3249,-0.1874899 16.3228,0.8258873 0,1.013376 8.3428,2.7511067 18.5445,3.861624 55.2418,6.0133573 140.1784,28.4183523 205.5192,54.2128013 152.1071,60.046928 288.5709,154.049508 431.9307,297.533328 83.4571,83.52955 149.2553,160.42325 228.0669,266.52673 18.4896,24.89231 35.0324,45.25874 36.7614,45.25874 1.729,0 2.2929,0.85086 1.253,1.89083 -1.0399,1.03997 0.7333,5.576 3.9403,10.08006 5.7715,8.10505 5.8424,21.59361 6.8912,1312.09632 0.5829,717.149 1.2367,1307.5798 1.4533,1312.0686 0.2167,4.4888 1.4166,8.1614 2.6666,8.1614 1.2503,0 2.4309,4.3404 2.6238,9.6453 0.1929,5.3049 1.3973,25.9874 2.677,45.9615 1.9471,30.3991 1.4833,39.43 -2.847,55.4279 -9.605,35.4825 -33.2505,54.5058 -71.0536,57.1628 -19.6544,1.3815 -22.0601,0.8737 -34.4836,-7.2776 -12.3504,-8.1035 -81.9756,-70.8621 -127.8929,-115.2801 -10.7629,-10.4113 -20.1714,-18.9297 -20.9077,-18.9297 -0.7363,0 -8.5057,-6.6232 -17.2651,-14.7184 -8.7591,-8.0953 -16.9063,-14.1125 -18.1044,-13.372 -1.1981,0.7405 -2.8491,-0.4012 -3.6685,-2.5369 -2.76,-7.1921 -108.8435,-85.154 -109.0302,-80.1272 -0.05,1.3367 -1.4673,0.065 -3.1503,-2.8256 -1.6827,-2.891 -4.1733,-4.5681 -5.5343,-3.727 -1.3607,0.8411 -3.2726,-0.5508 -4.2484,-3.0933 -0.9755,-2.5425 -2.9788,-3.878 -4.4517,-2.9678 -1.4726,0.9102 -3.5168,-0.5318 -4.5425,-3.2046 -1.0253,-2.6725 -2.5834,-4.1407 -3.4619,-3.2622 -0.8785,0.8785 -5.0203,-1.5753 -9.204,-5.4527 -4.184,-3.8774 -12.1145,-8.6799 -17.6236,-10.6719 -5.5091,-1.9922 -10.0166,-4.5333 -10.0166,-5.6468 0,-2.7158 -36.1049,-24.3094 -40.807,-24.4062 -2.0404,-0.042 -3.7098,-1.1547 -3.7098,-2.473 0,-1.3183 -4.0065,-4.4689 -8.9033,-7.001 -4.8969,-2.5321 -8.9034,-3.8068 -8.9034,-2.8322 0,0.9749 -2.0296,-0.2582 -4.5104,-2.7384 -6.6084,-6.608 -98.2533,-52.4208 -100.4566,-50.2176 -1.0304,1.0305 -1.8733,0.5182 -1.8733,-1.1384 0,-2.8975 -17.5912,-11.8029 -26.6394,-13.4856 -2.4096,-0.4482 -6.1775,-2.4841 -8.3733,-4.5244 -2.1959,-2.0404 -7.1245,-3.7097 -10.9526,-3.7097 -3.8282,0 -7.4052,-1.1278 -7.9495,-2.506 -1.1913,-3.018 -63.0507,-27.4093 -71.0393,-28.0112 -3.0957,-0.2345 -5.6284,-1.618 -5.6284,-3.0776 0,-1.4595 -2.0033,-1.8851 -4.4517,-0.9455 -2.4484,0.9396 -4.4517,0.273 -4.4517,-1.4839 0,-1.7558 -2.0033,-2.4235 -4.4517,-1.4839 -2.4484,0.9396 -4.4517,0.273 -4.4517,-1.4839 0,-1.7557 -2.0032,-2.4235 -4.4516,-1.4839 -2.4485,0.9396 -4.4517,0.3561 -4.4517,-1.2963 0,-1.6528 -1.6694,-2.7322 -3.7098,-2.3989 -2.0403,0.3333 -7.4945,-0.9529 -12.1201,-2.8589 -4.6259,-1.9056 -9.634,-2.7087 -11.1292,-1.7845 -1.4955,0.9242 -2.7188,0.5232 -2.7188,-0.8906 0,-2.2487 -35.1843,-12.8063 -47.451,-14.2386 -2.4668,-0.2878 -6.4885,-1.3702 -8.9369,-2.4051 -2.4484,-1.0345 -8.5187,-2.3077 -13.4892,-2.8289 -4.9707,-0.5214 -10.3127,-1.7346 -11.8711,-2.6965 -4.5945,-2.8357 -37.4336,-8.3157 -40.0696,-6.6864 -1.3305,0.8221 -3.3067,0.059 -4.3914,-1.6964 -1.0848,-1.7554 -4.8497,-2.9141 -8.3665,-2.5751 -3.5168,0.3392 -8.7511,-0.4004 -11.632,-1.643 -2.8811,-1.2429 -7.8877,-1.567 -11.1262,-0.72 -3.2387,0.847 -6.6579,0.2938 -7.5984,-1.2272 -0.9408,-1.5219 -5.9501,-2.809 -11.1322,-2.8603 -5.1823,-0.051 -16.7674,-0.8714 -25.7449,-1.8225 -40.0644,-4.2449 -223.5835,-1.3293 -231.69,3.6806 -1.8626,1.1512 -10.0853,2.6164 -18.2726,3.2557 -8.1874,0.6395 -16.3945,2.1026 -18.238,3.2512 -1.8435,1.1485 -6.3567,1.6999 -10.0293,1.2254 -3.6727,-0.4746 -6.6845,0.2344 -6.6929,1.5753 -0.01,1.3411 -5.598,2.76 -12.4212,3.1533 -6.8232,0.3929 -13.1599,1.7284 -14.0816,2.9677 -0.9217,1.2391 -5.6665,2.6871 -10.5439,3.218 -4.8775,0.5306 -10.3424,2.1885 -12.1442,3.6839 -1.8019,1.4955 -3.9278,2.0674 -4.7242,1.2708 -1.4765,-1.4764 -31.1945,6.5609 -36.587,9.8949 -1.6323,1.0094 -4.3033,1.9083 -5.9356,1.9979 -8.1658,0.4482 -22.2584,5.2322 -22.2584,7.5563 0,1.4513 -2.0033,1.87 -4.4517,0.9304 -2.4484,-0.9396 -4.4517,-0.1513 -4.4517,1.7522 0,1.9032 -1.1398,2.7562 -2.5328,1.8952 -3.1245,-1.9311 -21.2094,4.6416 -21.2094,7.7083 0,1.223 -1.8311,1.5212 -4.0691,0.6624 -2.2379,-0.8589 -5.9225,0.2908 -8.1879,2.5573 -2.2654,2.2656 -5.6213,3.6183 -7.4576,3.0061 -1.8363,-0.612 -5.195,0.6161 -7.4637,2.7294 -2.2686,2.1131 -6.0963,4.2217 -8.5058,4.6853 -9.0962,1.7507 -20.7039,7.4016 -20.7039,10.0792 0,1.5308 -1.1208,2.0902 -2.4907,1.2438 -3.4253,-2.1172 -62.8006,27.3021 -62.8006,31.1163 0,1.6875 -1.3355,2.2431 -2.9678,1.2343 -1.6322,-1.0087 -2.9677,-0.4199 -2.9677,1.3088 0,1.7285 -1.0017,2.9847 -2.2259,2.7915 -5.362,-0.8467 -8.9789,0.7734 -15.6935,7.0289 -3.9422,3.6727 -7.6378,6.1567 -8.2125,5.5204 -1.5635,-1.7314 -24.3205,11.5628 -24.3205,14.2074 0,1.256 -1.7235,2.2834 -3.8299,2.2834 -5.4356,0 -58.4936,36.1215 -58.4936,39.8221 0,1.6865 -1.1997,2.3249 -2.6661,1.4186 -1.4663,-0.9061 -6.8083,2.2219 -11.8711,6.9511 -5.0628,4.7295 -9.2495,7.7293 -9.3038,6.6662 -0.054,-1.063 -2.653,1.1308 -5.7748,4.8752 -3.1218,3.7442 -6.5416,6.593 -7.5995,6.3306 -2.8886,-0.7164 -66.23,50.7883 -74.3976,60.4951 -3.9042,4.6398 -7.1104,7.3319 -7.125,5.9824 -0.015,-1.3494 -7.6936,5.0242 -17.0647,14.1635 -9.3711,9.1393 -32.7305,31.7689 -51.9099,50.2882 -19.1793,18.519 -34.8714,34.4388 -34.8714,35.3769 0,2.7773 -94.684,101.2469 -152.7748,158.8831 -233.2349,231.4096 -462.6384,378.1034 -687.1087,439.3772 -17.1389,4.6784 -31.8295,9.2307 -32.6456,10.1162 -0.8161,0.8856 -6.8255,1.9428 -13.3541,2.3491 -6.5286,0.4065 -12.251,1.8818 -12.7166,3.2785 -0.4656,1.3966 -4.1386,1.91 -8.1624,1.1408 -4.1408,-0.7915 -7.3159,-9e-4 -7.3159,1.8219 0,1.7715 -2.0033,2.452 -4.4517,1.5124 -2.4484,-0.9396 -6.7888,-0.706 -9.6453,0.5191 -2.8565,1.2251 -8.8662,1.935 -13.355,1.5776 -4.4888,-0.357 -8.1614,0.4882 -8.1614,1.8786 0,1.3901 -5.342,2.0184 -11.8712,1.3958 -7.6993,-0.7342 -11.8711,0.083 -11.8711,2.3226 0,1.9 -1.0016,2.8743 -2.2259,2.165 -1.2242,-0.7093 -42.0269,-0.4541 -90.6726,0.5668 -48.6458,1.0209 -89.38148,0.9186 -90.52378,-0.2285 z m 161.30408,-139.0334 c 13.1413,0.3663 78.8367,-11.2716 82.9638,-14.6967 1.9294,-1.6012 4.2389,-2.1802 5.1324,-1.2869 2.02,2.0202 38.1918,-7.1621 42.6192,-10.8187 1.7825,-1.4723 3.9344,-1.9834 4.7821,-1.1355 0.8476,0.8476 5.399,-0.048 10.1141,-1.9858 4.7152,-1.9397 10.2424,-3.2538 12.2828,-2.9205 2.0403,0.3332 3.7107,-0.4544 3.7118,-1.7502 0,-1.2957 3.6328,-2.5665 8.0703,-2.8244 4.4375,-0.2582 8.5293,-1.8519 9.093,-3.5429 0.5636,-1.6911 2.9418,-2.3389 5.2848,-1.4397 2.3429,0.8989 4.2599,0.4404 4.2599,-1.0191 0,-1.4596 2.4188,-2.8361 5.3752,-3.0586 7.8191,-0.5892 62.8839,-22.0409 62.8839,-24.4982 0,-1.1444 1.9594,-2.081 4.3543,-2.081 6.5009,0 28.2913,-10.3873 28.2913,-13.4863 0,-1.4806 1.3355,-1.8667 2.9678,-0.8579 1.6323,1.0087 2.9678,0.341 2.9678,-1.4839 0,-1.8249 1.3355,-2.4927 2.9678,-1.4839 1.6322,1.0087 2.9678,0.4199 2.9678,-1.3088 0,-1.7285 1.0288,-2.809 2.2862,-2.401 3.6645,1.1892 27.3916,-10.2786 27.3916,-13.239 0,-1.4806 1.3355,-1.8667 2.9678,-0.8579 1.6323,1.0087 2.9678,0.1958 2.9678,-1.8033 0,-2.0008 0.8881,-2.7496 1.9735,-1.664 2.0401,2.04 27.7865,-11.7133 31.0039,-16.5617 0.9987,-1.505 2.4983,-2.2885 3.3325,-1.7409 2.6471,1.7373 64.5948,-36.4347 64.5948,-39.8031 0,-1.7729 0.8188,-2.4048 1.8196,-1.4041 2.3243,2.3244 63.4717,-38.5672 63.4717,-42.4458 0,-1.5958 1.1805,-2.5675 2.6234,-2.1594 8.9109,2.5203 170.2292,-129.8902 201.4238,-165.3291 6.5261,-7.4141 13.0475,-13.48 14.4919,-13.48 1.4446,0 25.3005,-22.7035 53.0133,-50.4523 27.7128,-27.7488 49.5317,-50.4524 48.4865,-50.4524 -1.0452,0 9.6536,-11.6928 23.7751,-25.9836 14.1214,-14.291 51.0499,-51.8852 82.0633,-83.5422 87.223,-89.0333 138.3534,-133.6323 220.8317,-192.6227 95.6621,-68.4199 202.8722,-123.9992 306.9363,-159.1205 47.2151,-15.935 120.4279,-34.6011 165.21,-42.1214 17.1389,-2.8781 31.8295,-5.9799 32.6456,-6.8928 1.9381,-2.1679 11.3059,-2.5471 118.7115,-4.8055 73.1007,-1.5371 99.2593,-0.9762 135.9501,2.9147 24.9878,2.6499 46.5758,4.1115 47.973,3.248 1.3973,-0.8636 2.9883,-0.5255 3.5359,0.7513 1.0942,2.5519 73.252,16.6553 86.3192,16.8712 4.4888,0.074 8.1614,0.9879 8.1614,2.0305 0,1.0425 5.0082,2.8308 11.1292,3.9739 6.1211,1.1431 31.5687,7.9937 56.55,15.2235 209.7794,60.7117 436.3099,187.2845 628.2524,351.033 l 32.6599,27.8624 1.8082,-87.2182 c 0.9948,-47.9701 1.9965,-617.8578 2.2259,-1266.4169 l 0.4175,-1179.19846 -33.1101,-43.52935 c -38.3123,-50.36834 -93.7164,-118.41447 -98.9477,-121.52492 -1.9745,-1.17403 -4.1196,-3.75265 -4.7672,-5.73026 -2.5374,-7.75138 -147.5892,-159.63118 -150.0777,-157.1426 -0.4781,0.47814 -8.5911,-6.63989 -18.029,-15.8178 -30.0503,-29.22325 -119.3346,-98.61296 -119.5519,-92.91309 -0.05,1.30262 -1.3886,0.14364 -2.9755,-2.57536 -3.5963,-6.16243 -31.3309,-23.4778 -33.7422,-21.06628 -0.9752,0.97522 -1.7733,0.36864 -1.7733,-1.34796 0,-3.27086 -11.7794,-11.98276 -18.0886,-13.3782 -2.0214,-0.44704 -6.1721,-3.19864 -9.2242,-6.11467 -3.0521,-2.91603 -6.836,-4.50659 -8.4089,-3.53458 -1.5726,0.97201 -2.8595,0.64091 -2.8595,-0.73577 0,-3.56721 -16.5923,-12.91147 -18.8742,-10.62944 -1.0453,1.04517 -1.9003,0.49763 -1.9003,-1.21678 0,-3.0615 -50.6349,-29.69683 -59.3557,-31.22277 -2.4484,-0.42841 -5.1194,-1.64985 -5.9356,-2.71431 -2.0863,-2.72124 -51.5804,-22.99969 -59.9027,-24.54304 -3.78,-0.70096 -7.5402,-1.53187 -8.3563,-1.84646 -0.8162,-0.31459 -2.4856,-0.41383 -3.7098,-0.22054 -1.2242,0.1933 -2.2258,-1.12694 -2.2258,-2.93385 0,-1.80692 -2.0033,-2.51659 -4.4517,-1.57704 -2.4484,0.93955 -4.4517,0.27179 -4.4517,-1.48389 0,-1.75569 -1.8406,-2.48589 -4.0899,-1.62267 -2.2496,0.86322 -5.2544,0.4596 -6.6775,-0.89693 -3.764,-3.58773 -34.0565,-12.06908 -36.8783,-10.32517 -1.318,0.81461 -3.2916,0.0328 -4.3858,-1.73741 -1.0939,-1.77019 -3.8145,-2.51805 -6.0454,-1.66192 -2.2312,0.85613 -4.9022,0.18839 -5.9355,-1.4839 -1.0337,-1.67227 -3.7047,-2.34002 -5.9356,-1.48389 -2.2312,0.85613 -4.9176,0.16308 -5.9703,-1.54011 -1.0527,-1.7032 -4.433,-2.438 -7.5118,-1.6329 -3.0785,0.80511 -6.4172,0.13735 -7.4194,-1.48389 -1.002,-1.62125 -4.3419,-2.28865 -7.4225,-1.48312 -3.0802,0.80553 -5.6005,0.10254 -5.6005,-1.56219 0,-1.67495 -3.9765,-2.44316 -8.9033,-1.72005 -4.8969,0.71871 -8.9034,0.10023 -8.9034,-1.37443 0,-1.47465 -4.3597,-2.30557 -9.688,-1.8465 -5.3284,0.45907 -11.1441,-0.0653 -12.9239,-1.16515 -1.7797,-1.09991 -41.8256,-2.00562 -88.9908,-2.01269 -83.8375,-0.0125 -139.1381,4.45012 -148.3516,11.97182 -1.7825,1.45517 -3.9293,1.95729 -4.7708,1.11582 -2.0683,-2.0683 -53.0722,9.96071 -57.3748,13.53155 -1.8803,1.56053 -4.1123,2.14379 -4.96,1.29614 -0.8476,-0.84765 -5.399,0.0473 -10.1141,1.98889 -4.7152,1.94153 -9.4486,3.35645 -10.5186,3.14425 -7.0598,-1.39999 -115.282,40.40112 -115.282,44.52799 0,1.50381 -1.0788,2.06745 -2.3974,1.25251 -5.3198,-3.28779 -128.1852,61.01903 -128.1852,67.09113 0,1.4573 -1.2868,1.85436 -2.8595,0.88235 -1.5727,-0.97201 -5.3567,0.61856 -8.4087,3.53458 -3.0521,2.91605 -7.203,5.66763 -9.2242,6.11467 -6.0233,1.33218 -18.0888,10.04254 -18.0888,13.05873 0,1.54087 -1.3449,1.97037 -2.9887,0.95444 -1.6439,-1.0159 -3.79,0.24069 -4.7692,2.79266 -0.9793,2.55188 -3.6409,4.63977 -5.9147,4.63977 -2.2737,0 -4.1341,1.41433 -4.1341,3.14295 0,1.72861 -1.2534,2.36826 -2.7854,1.42145 -1.532,-0.94678 -4.109,0.64377 -5.7268,3.5346 -1.6178,2.89083 -3.6674,4.58829 -4.5547,3.77215 -2.102,-1.9334 -55.1922,35.52413 -55.1922,38.94052 0,1.43466 -2.0451,2.60848 -4.5448,2.60848 -2.4997,0 -5.3106,1.9956 -6.2466,4.43464 -0.9359,2.43905 -2.8059,3.75221 -4.1554,2.91814 -1.3496,-0.8341 -4.3343,1.16836 -6.6328,4.44984 -2.2984,3.28148 -4.8384,5.3069 -5.6444,4.50094 -0.806,-0.80599 -7.0207,3.66326 -13.8106,9.93164 -6.7899,6.26838 -12.8698,10.87248 -13.5109,10.23135 -0.6412,-0.64113 -3.8117,2.19809 -7.0457,6.30942 -3.2339,4.11131 -6.5727,6.78232 -7.4194,5.93558 -0.8468,-0.84677 -4.0521,1.65469 -7.1231,5.55875 -3.0709,3.90409 -7.1512,7.64703 -9.0673,8.31772 -5.4154,1.89553 -68.2609,55.93271 -79.4369,68.30321 -5.4911,6.078 -10.5583,10.4764 -11.2604,9.77422 -0.7022,-0.70214 -16.4433,14.43739 -34.9803,33.64342 -18.5369,19.20603 -37.4168,37.72026 -41.9552,41.14277 -4.5384,3.42251 -7.6502,6.82416 -6.9151,7.55922 0.735,0.73509 -14.6412,16.39384 -34.1694,34.79726 -19.5283,18.40342 -35.5059,35.11704 -35.5059,37.14139 0,2.02436 -3.9192,6.57819 -8.7093,10.11968 -4.7901,3.54146 -40.503,42.18835 -79.362,85.88194 -206.3236,231.99316 -352.2075,365.80986 -516.8144,474.06476 -140.7227,92.5473 -278.9965,149.6832 -410.0971,169.4557 -48.90493,7.3758 -204.68104,7.5332 -204.7523,0.2068 -0.0148,-1.4095 -4.03144,-1.9746 -8.92828,-1.2559 -4.89685,0.7187 -8.90336,0.1068 -8.90336,-1.3595 0,-1.4664 -3.00488,-2.3685 -6.67752,-2.0047 -3.67263,0.3637 -10.43708,-0.8762 -15.03213,-2.7554 -4.59503,-1.8792 -10.05038,-3.4168 -12.12296,-3.4168 -7.56008,0 -70.66735,-21.2688 -101.76437,-34.2973 -65.57878,-27.4751 -133.12425,-67.9136 -190.85947,-114.2649 -17.13896,-13.7596 -54.34577,-47.7291 -82.68177,-75.4877 -79.53443,-77.9138 -127.14008,-135.8118 -194.01156,-235.95687 -21.25404,-31.8295 -40.45706,-59.33936 -42.67339,-61.13306 -2.21633,-1.79368 -3.35042,-3.94048 -2.5202,-4.77072 0.83021,-0.83021 -0.52605,-3.1988 -3.01392,-5.26355 -4.05144,-3.36241 -4.5234,124.83647 -4.5234,1228.6956 v 1232.4496 l 28.66024,35.4303 c 15.76312,19.4868 30.44599,36.1156 32.62859,36.9534 2.18261,0.8375 3.36641,2.4968 2.63068,3.6872 -0.73573,1.1904 7.01574,11.1135 17.22549,22.0509 10.20975,10.9378 18.0878,20.362 17.50678,20.9431 -0.58101,0.5811 29.92755,32.6186 67.79681,71.1945 37.86926,38.5759 69.42291,69.5685 70.11918,68.8722 0.6963,-0.6965 6.71082,4.6408 13.36563,11.8605 6.65478,7.2197 12.69791,12.5282 13.42911,11.7969 0.73124,-0.7312 5.38796,3.2931 10.34829,8.9426 4.96032,5.6495 9.72288,9.5675 10.58348,8.7069 0.86057,-0.8604 3.30098,0.9143 5.42312,3.9442 4.95653,7.0763 63.41975,51.9665 63.53938,48.788 0.0496,-1.3192 1.45148,-0.062 3.11525,2.7953 1.66374,2.8565 4.819,5.1937 7.01169,5.1937 2.19269,0 4.82877,2.1943 5.85797,4.8763 1.0292,2.682 2.59001,4.1579 3.46848,3.2794 0.87846,-0.8784 5.0999,1.6489 9.38099,5.6166 8.24647,7.6426 55.5863,37.5086 58.50402,36.9094 0.94613,-0.1929 4.61714,2.3458 8.15777,5.6442 6.04707,5.6337 9.69382,7.1811 14.9636,6.349 1.22421,-0.193 2.22584,0.738 2.22584,2.07 0,3.5082 22.50763,15.6307 24.78796,13.3503 1.05715,-1.0572 1.92211,-0.1425 1.92211,2.035 0,2.1763 0.82674,3.1304 1.83721,2.1199 1.01044,-1.0106 3.78912,0.1157 6.17484,2.5003 2.38568,2.3858 5.56546,3.5789 7.06615,2.6514 1.50069,-0.9274 2.72852,-0.1929 2.72852,1.6317 0,1.8249 1.3355,2.4927 2.96779,1.4839 1.63228,-1.0087 2.96778,-0.341 2.96778,1.4839 0,1.8249 1.3355,2.4927 2.96779,1.4839 1.63228,-1.0087 2.96778,-0.341 2.96778,1.4839 0,1.8249 1.33551,2.4927 2.96779,1.4839 1.63228,-1.0087 2.96778,-0.582 2.96778,0.9488 0,2.6924 11.67053,8.3546 20.77451,10.0792 2.44842,0.4636 5.13201,1.7376 5.96355,2.831 2.67116,3.5118 31.90519,14.0581 33.77783,12.1854 0.99418,-0.9939 1.80762,-0.1068 1.80762,1.9724 0,2.0789 1.91698,3.0443 4.25993,2.1454 2.34298,-0.8992 4.68011,-0.5318 5.19362,0.8164 1.34809,3.5391 67.50749,24.4003 70.8439,22.3383 1.54031,-0.9521 2.80055,-0.1603 2.80055,1.7581 0,2.0279 2.48567,2.839 5.93558,1.9371 3.26456,-0.8539 5.93557,-0.187 5.93557,1.4839 0,1.6696 2.671,2.3374 5.93557,1.4838 3.26456,-0.8538 5.93557,-0.1869 5.93557,1.4836 0,1.6697 3.33876,2.3977 7.41947,1.6175 4.0807,-0.7799 7.41946,-0.4511 7.41946,0.731 0,2.9289 43.65346,9.7827 47.43255,7.447 1.66089,-1.0262 3.01981,-0.4273 3.01981,1.3314 0,1.929 5.89539,2.9885 14.86205,2.6713 8.17411,-0.2909 15.76743,0.3793 16.87403,1.4859 1.1066,1.1067 33.48214,1.229 71.94569,0.2731 38.46358,-0.9568 74.00338,-1.6267 78.97728,-1.4881 z"
     id="path4605"
     inkscape:connector-curvature="0"
     transform="scale(0.16)" />
  <path
     style="fill:#888888;fill-opacity:1;stroke-width:2.96778584;stroke:#888888;stroke-opacity:1"
     d="m 3553.594,2854.9342 c -15.955,-5.0673 -40.9644,-17.9926 -60.8396,-31.4431 -59.6786,-40.3875 -176.6577,-97.8732 -262.4406,-128.9684 -117.9717,-42.7632 -222.0293,-62.883 -341.6335,-66.0559 -181.7292,-4.821 -326.3284,29.1439 -526.0934,123.5743 -34.7867,16.4439 -63.8339,29.898 -64.5494,29.898 -0.7154,0 -1.3008,-372.1515 -1.3008,-827.0032 0,-738.3337 -0.5104,-831.8049 -4.7601,-871.7871 -5.1731,-48.6698 -4.3432,-109.9195 1.8734,-138.26921 5.4776,-24.9798 22.0736,-57.91281 37.4893,-74.39334 9.0302,-9.65412 21.2374,-18.34593 34.9012,-24.85055 11.5575,-5.50189 33.7009,-20.36573 49.2076,-33.03073 184.7934,-150.92899 359.5241,-238.13133 535.6854,-267.34296 45.4423,-7.5354 164.6733,-7.58025 207.745,-0.0782 105.6207,18.39669 203.1448,57.75766 294.8031,118.98336 51.0949,34.13019 92.2241,67.38409 147.1671,118.98796 l 46.2654,43.45372 -0.7594,990.27825 -0.7593,990.2781 -6.3792,11.9101 c -17.9652,33.5414 -50.2916,47.0798 -85.6222,35.8589 z M 3522.4322,1785.4385 V 889.84256 l -30.065,-26.64356 c -92.7971,-82.23668 -180.6914,-134.09231 -275.6169,-162.60782 -60.7243,-18.24151 -84.817,-21.34333 -164.7121,-21.20596 -65.6384,0.11285 -74.1376,0.74331 -108.3242,8.03533 -73.1954,15.61261 -122.5464,32.58689 -192.0041,66.03978 -95.8312,46.15513 -194.3186,112.30361 -290.2611,194.95217 -34.9447,30.10267 -35.6504,30.95665 -37.5793,45.47663 -2.5252,19.00867 -3.1068,1527.54617 -0.6003,1557.19777 l 1.8854,22.3052 41.8894,-14.661 c 246.0071,-86.1009 477.6042,-93.4504 721.186,-22.8864 97.7719,28.3239 210.9297,76.5158 301.5566,128.4274 15.5067,8.8824 29.1956,16.2875 30.4198,16.456 1.2242,0.1686 2.2258,-402.7119 2.2258,-895.2896 z"
     id="path4607"
     inkscape:connector-curvature="0"
     transform="scale(0.16)" />
  <path
     style="fill:#888888;fill-opacity:1;stroke-width:2.96778584;stroke:#888888;stroke-opacity:1"
     d="m 1720.2443,2687.7369 -20.0326,-1.0382 0.192,-43.6392 c 0.1057,-24.0016 1.4116,-71.0171 2.9021,-104.4789 1.4905,-33.4618 3.9878,-97.5659 5.5496,-142.4537 1.5618,-44.8878 3.7723,-105.9871 4.9121,-135.7762 1.6396,-42.8512 1.2865,-54.1621 -1.6908,-54.1621 -2.0698,0 -30.6268,14.5424 -63.4601,32.3164 -161.2003,87.2644 -269.0107,132.9224 -407.0624,172.3922 -137.799,39.3976 -303.9401,46.2239 -426.64381,17.5297 -119.94134,-28.0483 -242.91149,-99.7205 -336.10395,-195.8957 -38.29004,-39.5156 -96.29168,-112.0742 -96.29168,-120.4586 0,-2.3883 71.22458,-63.7995 85.98618,-74.1389 6.59815,-4.6216 7.14227,-4.4666 13.1179,3.7366 3.42882,4.707 10.91255,14.1031 16.63052,20.8802 5.71797,6.7771 13.73506,16.6747 17.81577,21.9947 37.15953,48.4449 93.90378,101.2948 145.42151,135.4415 63.01802,41.7691 133.17989,69.5529 213.68058,84.6165 32.98305,6.1719 45.49043,6.9208 112.77587,6.7529 42.79121,-0.1068 83.41671,-1.6436 93.48521,-3.5365 9.7937,-1.8412 29.8263,-5.4887 44.5168,-8.1057 38.0731,-6.7822 88.1039,-18.5286 115.7437,-27.1746 51.5343,-16.1204 116.1769,-38.9808 142.4537,-50.3778 9.7937,-4.2478 21.8132,-9.4075 26.7101,-11.466 26.5982,-11.1812 107.8114,-50.6776 139.4859,-67.836 16.3228,-8.8423 37.6909,-20.4173 47.4846,-25.7224 9.7937,-5.305 21.1455,-11.8767 25.2262,-14.6038 4.0807,-2.727 10.7582,-6.6154 14.8389,-8.6408 9.4018,-4.6665 15.8595,-8.5051 34.508,-20.5123 8.2391,-5.3049 15.8448,-9.6453 16.9015,-9.6453 6.5258,0 31.3388,-18.9774 32.8891,-25.154 0.9957,-3.9674 3.1081,-42.333 4.6942,-85.2569 5.4283,-146.9096 12.2698,-318.4219 14.3387,-359.4669 1.1376,-22.5679 1.7296,-41.3713 1.3157,-41.7853 -0.8322,-0.8321 -28.6654,2.3016 -63.4092,7.1393 -20.7542,2.8898 -61.1426,13.9335 -75.3675,20.6084 -3.2646,1.5319 -15.8258,7.0097 -27.9139,12.173 -24.5997,10.5075 -55.1093,26.5975 -72.9909,38.4935 -6.5291,4.3436 -17.2131,11.2191 -23.7422,15.2788 -28.2193,17.5466 -61.8645,40.8052 -126.1309,87.1931 -86.5483,62.4711 -119.9491,81.1201 -182.71,102.015 -68.9475,22.9544 -86.717,25.4337 -182.32771,25.439 -114.68778,0.01 -132.12993,-2.819 -240.39066,-38.9403 -99.02862,-33.041 -207.99042,-87.0211 -315.32725,-156.2145 -17.54704,-11.3115 -31.9037,-21.991 -31.9037,-23.7323 0,-5.7428 56.08681,-109.0246 59.20425,-109.0225 1.68541,0 85.06427,48.8461 111.44344,65.2857 8.16141,5.0862 38.21024,20.6597 66.77518,34.6077 28.56494,13.948 54.20857,26.5297 56.98588,27.9593 21.5466,11.0909 113.92508,43.146 147.79135,51.2832 54.50229,13.0955 83.38564,16.179 154.56564,16.5009 77.97628,0.3527 125.24048,-10.1648 189.55578,-42.181 13.7964,-6.8679 29.5479,-15.492 35.0033,-19.1646 5.4553,-3.6726 11.195,-6.6775 12.7548,-6.6775 1.5598,0 2.836,-1.3355 2.836,-2.9678 0,-1.6323 1.8604,-2.9678 4.1342,-2.9678 2.2738,0 4.9028,-2.0032 5.8424,-4.4517 0.9395,-2.4484 3.6421,-4.4516 6.0058,-4.4516 2.3636,0 4.7426,-1.1469 5.2867,-2.5487 1.3474,-3.4712 75.9849,-56.0606 137.5074,-96.8874 83.1732,-55.1942 141.0009,-84.7028 213.6806,-109.0377 35.2464,-11.8014 36.1686,-11.9388 89.4718,-13.3366 66.8105,-1.752 84.8757,1.0804 128.8139,20.1967 18.5113,8.0537 35.4074,14.6431 37.5469,14.6431 2.9879,0 3.5055,4.6462 2.2317,20.0326 -1.7587,21.2449 -13.3024,277.4179 -15.2122,337.5857 -0.6218,19.5873 -5.1107,136.4439 -9.9754,259.6812 -13.0379,330.2859 -23.6302,603.2271 -23.6396,609.1381 -0.01,4.7139 -3.6405,5.1399 -39.3313,4.6123 -21.6278,-0.3197 -48.3378,-1.0484 -59.3557,-1.6195 z"
     id="path4609"
     inkscape:connector-curvature="0"
     transform="scale(0.16)" />
  <path
     style="fill:#888888;fill-opacity:1;stroke-width:2.96799994;stroke:#888888;stroke-opacity:1;stroke-miterlimit:4;stroke-dasharray:none;stroke-dashoffset:0"
     d="m 1033.9438,3353.2463 c -1.6323,-0.7267 -14.9874,-2.5896 -29.6779,-4.1398 -69.75545,-7.3608 -170.38126,-30.5197 -252.39534,-58.0884 -117.02841,-39.3386 -249.71803,-105.417 -369.3558,-183.9362 -37.10231,-24.3506 -96.63784,-65.659 -103.8725,-72.0715 -4.28938,-3.8018 61.55324,-111.5482 66.90981,-109.4927 2.15201,0.8258 13.90109,8.8882 26.10907,17.9164 33.6659,24.8971 123.08323,83.2582 151.72755,99.0298 53.57861,29.5005 104.21013,55.4942 133.64627,68.6126 11.42597,5.092 24.55537,11.2462 29.17642,13.6759 4.62105,2.4297 9.8342,4.4176 11.58478,4.4176 1.75058,0 9.98924,3.1991 18.30815,7.109 19.64063,9.2313 95.75119,36.452 117.17715,41.9081 9.16278,2.3332 32.01787,8.2801 50.78912,13.2152 18.77124,4.9351 39.13768,8.9778 45.25873,8.9838 l 11.1292,0.011 V 3000.0715 2799.746 h 79.67639 79.6764 l -1.4478,210.7128 -1.4478,210.7128 h 8.0917 c 38.2609,0 132.7897,-7.5392 167.8431,-13.3863 69.3877,-11.5744 148.9953,-32.5904 195.8739,-51.7099 12.2421,-4.993 23.7643,-9.0827 25.6048,-9.0883 1.8404,-0.01 5.0088,-2.0134 7.0408,-4.4619 2.0321,-2.4484 6.2202,-4.4516 9.3071,-4.4516 3.0868,0 7.9314,-1.2121 10.7658,-2.6935 2.8343,-1.4815 30.0743,-14.9455 60.5333,-29.9201 30.459,-14.9746 62.116,-31.4579 70.3489,-36.6296 8.2328,-5.1717 21.3736,-13.1803 29.2018,-17.7968 16.9206,-9.9786 38.5782,-23.6357 46.7168,-29.4593 1.7214,-1.2318 11.8105,-7.905 22.4204,-14.8293 10.6098,-6.9244 39.2372,-27.6012 63.6164,-45.9484 42.7467,-32.1702 44.5299,-33.1749 50.0565,-28.2036 8.0536,7.2445 64.3942,92.0431 64.3942,96.9201 0,7.4046 -85.0619,72.0459 -151.7954,115.3543 -141.6095,91.9012 -302.661,160.0131 -446.2134,188.7128 -74.2771,14.8498 -104.0711,17.7327 -200.3256,19.3839 -51.4169,0.882 -94.8208,1.0092 -96.453,0.2826 z"
     id="path4611"
     inkscape:connector-curvature="0"
     transform="scale(0.16)" />
</svg>
